<?xml version="1.0" encoding="utf-8"?>
<!-- Generator: Adobe Illustrator 26.2.1, SVG Export Plug-In . SVG Version: 6.00 Build 0)  -->
<svg version="1.1" id="Grupo_4591" xmlns="http://www.w3.org/2000/svg" xmlns:xlink="http://www.w3.org/1999/xlink" x="0px" y="0px"
	 viewBox="0 0 200 68.8" style="enable-background:new 0 0 200 68.8;" xml:space="preserve">
<style type="text/css">
	.st0{fill:#EE7518;}
	.st1{fill:#FFFFFF;}
</style>
<g>
	<path d="M26.5,0l-0.4,0.1L1,7.5L0,7.8v1v41v0.3l0.2,0.3c1.3,2.6,5.2,6,11.3,10c4.2,2.8,8.1,4.9,8.7,5.3c1.8,1.1,4.9,3,6.4,3
		c1.4,0,4.6-1.9,6.4-3c0.4-0.2,4.4-2.5,8.7-5.3c6.2-4,10-7.4,11.3-10l0.2-0.3v-0.3v-41v-1l-1-0.3L26.9,0.1L26.5,0L26.5,0z"/>
	<path class="st0" d="M26.5,1.5L1.4,8.9v41c3,5.7,19.4,14.6,19.4,14.6s4.4,2.9,5.7,2.9c1.2,0,5.7-2.8,5.7-2.8s16.5-9,19.4-14.6V8.9
		L26.5,1.5z M32.6,11l0.7-1.4L34,11l1.5,0.2l-1.1,1.1l0.3,1.5l-1.4-0.7l-1.4,0.7l0.3-1.5L31,11.2L32.6,11z M25.5,9.6l1-2.2l1,2.2
		l2.4,0.3l-1.8,1.6l0.4,2.4l-2.2-1.1l-2.2,1.1l0.4-2.4l-1.8-1.6L25.5,9.6z M19.1,11l0.7-1.4l0.7,1.4l1.5,0.2l-1.1,1.1l0.3,1.5
		l-1.4-0.7l-1.4,0.7l0.3-1.5l-1.1-1.1L19.1,11z M21.2,58.3l-1.4-0.7l-1.4,0.7l0.3-1.5l-1.1-1.1l1.5-0.2l0.7-1.4l0.7,1.4l1.5,0.2
		l-1.1,1.1L21.2,58.3z M28.7,60.4l-2.2-1.1l-2.2,1.1l0.4-2.4l-1.6-1.6l2.4-0.3l1-2.2l1,2.2l2.4,0.3L28.1,58L28.7,60.4z M34.7,58.3
		l-1.4-0.7l-1.4,0.7l0.3-1.5L31,55.6l1.5-0.2l0.7-1.4l0.7,1.4l1.5,0.2l-1.1,1.1L34.7,58.3z M26.5,49.4c-8.8,0-15.8-7.1-15.8-15.8
		c0-8.8,7.1-15.8,15.8-15.8c8.8,0,15.8,7.1,15.8,15.8C42.4,42.3,35.3,49.4,26.5,49.4z"/>
	<g>
		<path class="st1" d="M26.5,26.4c-3.9,0-7.2,3.2-7.2,7.2s3.2,7.2,7.2,7.2s7.2-3.2,7.2-7.2S30.5,26.4,26.5,26.4z M26.5,37.8
			c-2.4,0-4.3-2-4.3-4.3c0-2.4,2-4.3,4.3-4.3s4.3,2,4.3,4.3C30.8,35.9,28.9,37.8,26.5,37.8z"/>
		<path class="st1" d="M26.5,20.6c-7.1,0-13,5.8-13,13c0,7.1,5.8,13,13,13c7.1,0,13-5.8,13-13C39.5,26.4,33.7,20.6,26.5,20.6z
			 M26.5,43.6c-5.6,0-10.1-4.5-10.1-10.1c0-5.6,4.5-10.1,10.1-10.1s10.1,4.5,10.1,10.1S32.1,43.6,26.5,43.6z"/>
		<path class="st1" d="M26.5,32.1c-0.8,0-1.4,0.6-1.4,1.4c0,0.8,0.6,1.4,1.4,1.4s1.4-0.6,1.4-1.4C27.9,32.8,27.3,32.1,26.5,32.1z"/>
	</g>
</g>
<g>
	<path class="st1" d="M185,48.7c-0.1,0-0.2,0-0.3-0.1c-0.1-0.1-0.3-0.1-0.4-0.2c-0.3-0.1-0.5-0.2-0.6-0.4c-0.2-0.2-0.3-0.4-0.4-0.7
		c-0.1-0.3-0.1-0.6,0.1-0.9c0,0,0.2-0.2,0.8-1.1c-0.3,0.1-0.6,0.1-1,0.1h-1.3c-0.3,0-0.6-0.2-0.7-0.5l-0.3-0.8c0-0.1-0.1-0.2,0-0.3
		l2.5-24.8c0-1.5,0.1-2.6,0.2-3.1c-0.1-2.2,0.8-3,1.4-3.2c0.1,0,0.2-0.1,0.3-0.1c0.2,0,0.3,0.1,0.5,0.2c0.2,0.2,0.6,0.3,1.2,0.3
		c0.3,0,0.8-0.1,1.4-0.2c0.3-0.1,0.6-0.1,0.9-0.2c1-0.3,1.9-0.4,2.4-0.4c0.8,0,1.5,0.3,2,0.8c0.6,0.7,0.9,1.7,0.8,3.2
		c-0.1,1.7,0.2,3.9,0.9,6.5c0.8,3.3,1.1,5.4,1.1,6.9V31c0,0.3-0.1,0.5-0.3,0.6c-0.7,0.4-1.6,0.7-2.8,0.8c-0.4,0.1-0.9,0.1-1.4,0.1
		c-0.2,0-0.4,0-0.7,0c0.1,0.1,0.1,0.1,0.2,0.2c0.1,0.1,0.2,0.3,0.2,0.5c0,0.4,0,0.6,0.1,0.8c0.5-0.2,0.9-0.4,1.5-0.6l0.4-0.2
		c0.5-0.2,1.1-0.5,1.6-0.6c0.1,0,0.1,0,0.2,0c0.2,0,0.4,0.1,0.6,0.3c0.5,0.6,0.9,1.6,1,2.7c0.1,1.9,0.2,2.3,0.2,2.3
		c0,0.1,0,0.1,0,0.2c0.1,0.3,0.2,0.8,0.3,1.5c0.1,0.6,0.3,1.4,0.5,2.3c0.3,1.8,0.5,2.9,0.4,3.8c0,0.4,0,0.9-0.1,1.4
		c-0.1,0.2-0.2,0.4-0.4,0.5c-0.1,0-0.2,0.1-0.3,0.1c-0.1,0-0.2,0-0.3-0.1c-0.3-0.2-0.6-0.2-1-0.2c-0.2,0-0.7,0-1.5,0.3
		c-0.5,0.1-1.4,0.3-1.9,0.3c-0.3,0-0.5-0.2-0.7-0.4c-0.2-0.5-0.7-1.5-0.8-2.9c-0.1-0.6-0.2-1.2-0.3-1.6c-0.1-0.4-0.1-0.8-0.2-0.9
		c-0.1-0.2-0.1-0.5,0-0.7c-0.1-0.1-0.3-0.2-0.4-0.3c-0.3-0.1-1.2-0.6-1.2-1.3c0-0.5,0.3-0.8,0.8-1.1c-0.1-0.2-0.1-0.4-0.1-0.7
		c0,0,0-0.1,0-0.1c0,0,0,0,0,0c-0.5,0.2-1,0.3-1.4,0.4c-0.2,0-0.7,0.1-1,0.2c0,2.5-0.5,4-1.3,4.8c-0.1,0.1-0.3,0.2-0.5,0.2
		c-0.1,0-0.1,0-0.2,0c0,0,0,0.1-0.1,0.1c-0.2,0.3-0.3,0.5-0.5,0.7c0,0,0,0,0,0c0.4-0.3,0.7-0.5,1.1-0.5c0.8,0,1.2,0.8,1.5,1.6
		c0,0.1,0.1,0.2,0.1,0.3v0.5C187.8,47.2,187.4,48.5,185,48.7C185.1,48.7,185.1,48.7,185,48.7z M188,31.3c0,0.3,0,0.6,0.1,0.7
		c0.1,0.2,0.4,0.2,0.7,0.2c0.2,0,0.4-0.1,0.6-0.2c0.2-0.1,0.3-0.1,0.4-0.1c-0.1-1.1-0.3-2.2-0.4-3.3c-0.1-1.2-0.3-2.4-0.4-3.6
		c-0.1-0.5-0.2-1-0.2-1.5L188,31.3z M83.6,48.7c-0.1,0-0.2,0-0.3-0.1c-0.1-0.1-0.3-0.1-0.4-0.2c-0.3-0.1-0.5-0.2-0.6-0.4
		c-0.2-0.2-0.3-0.5-0.4-0.7c-0.1-0.3-0.1-0.6,0.1-0.9c0,0,0.1-0.2,0.7-0.9c-0.2,0-0.5,0.1-0.7,0.1h-1.3c-0.3,0-0.6-0.2-0.7-0.5
		l-0.3-0.8c0-0.1-0.1-0.2,0-0.3L82,19.1c0-1.5,0.1-2.6,0.2-3.1c-0.1-2.2,0.8-3,1.4-3.2c0.1,0,0.2-0.1,0.3-0.1c0.2,0,0.3,0.1,0.5,0.2
		c0.2,0.2,0.6,0.3,1.2,0.3c0.3,0,1,0,2.2-0.4c0.5-0.1,0.8-0.2,1.2-0.2c0.6-0.1,1-0.2,1.3-0.2c0.8,0,1.5,0.3,2,0.8
		c0.6,0.7,0.9,1.7,0.8,3.2c-0.1,1.7,0.2,3.9,0.9,6.5c0.8,3.3,1.1,5.4,1.1,6.9v1.3c0,0.3-0.1,0.5-0.3,0.6c-0.7,0.4-1.6,0.7-2.8,0.8
		c-0.5,0.1-0.9,0.1-1.4,0.1c-0.2,0-0.4,0-0.6,0c0.1,0.1,0.1,0.1,0.2,0.2c0.1,0.1,0.2,0.3,0.2,0.5c0,0.3,0,0.6,0.1,0.8
		c0.4-0.2,0.9-0.4,1.5-0.6c0.3-0.1,0.6-0.2,0.9-0.4c0.4-0.1,0.8-0.3,1.1-0.4c0.1-0.1,0.2-0.1,0.3-0.1c0.2,0,0.4,0.1,0.6,0.3
		c0.5,0.7,0.8,1.6,1,2.7c0.1,1,0.2,1.7,0.3,2.1c0,0.3,0.1,0.5,0.1,0.6c0,0.4,0.3,1.6,0.6,3.1l0.1,0.5c0.3,1.6,0.5,2.8,0.5,3.8
		c0,0.5,0,1-0.1,1.5c-0.1,0.2-0.2,0.4-0.4,0.5c-0.1,0-0.2,0.1-0.3,0.1c-0.1,0-0.2,0-0.3-0.1c-0.3-0.1-0.7-0.2-1-0.2
		c-0.2,0-0.7,0-1.5,0.3c-0.6,0.2-1.4,0.3-1.9,0.3c-0.3,0-0.5-0.2-0.7-0.4c-0.2-0.5-0.7-1.5-0.8-2.9c-0.1-0.6-0.2-1.2-0.3-1.6
		c-0.1-0.4-0.1-0.8-0.2-0.9c-0.1-0.2-0.1-0.4,0-0.6c0,0,0,0,0,0c0,0-0.1-0.1-0.4-0.4c-0.7-0.4-1.2-0.7-1.2-1.3
		c0-0.4,0.3-0.7,0.7-1.1c-0.1-0.3-0.1-0.5-0.1-0.8c0-0.1,0-0.1,0-0.1c-0.4,0.2-0.8,0.3-1.3,0.4c-0.5,0.1-0.8,0.1-1,0.2
		c0,2.3-0.4,3.9-1.4,4.8c-0.1,0.1-0.3,0.2-0.5,0.2c-0.1,0-0.1,0-0.2,0c0,0,0,0-0.1,0.1c-0.1,0.1-0.1,0.2-0.2,0.3
		c0.2-0.2,0.5-0.2,0.7-0.2c0.4,0,1.1,0.2,1.5,1.7c0,0.1,0,0.1,0,0.2v0.5C86.4,47.2,85.9,48.5,83.6,48.7
		C83.6,48.7,83.6,48.7,83.6,48.7z M86.7,31.4c0,0.3,0,0.6,0.1,0.7c0.1,0.2,0.4,0.2,0.7,0.2c0.2,0,0.4,0,0.6-0.2
		c0.1,0,0.1-0.1,0.2-0.1c0.1,0,0.1,0,0.2,0c-0.2-1.2-0.3-2.3-0.4-3.5c-0.1-1.1-0.3-2.3-0.4-3.5c-0.1-0.6-0.1-1.1-0.2-1.7L86.7,31.4z
		 M137,48.7c-0.1,0-0.2,0-0.3-0.1c-0.1-0.1-0.3-0.1-0.4-0.2c-0.3-0.1-0.5-0.2-0.6-0.4c-0.2-0.2-0.3-0.4-0.4-0.7
		c-0.1-0.3-0.1-0.6,0.1-0.9c0,0,0.1-0.2,0.7-1c-0.3,0.1-0.6,0.1-0.9,0.1h-1.3c-0.3,0-0.6-0.2-0.7-0.5l-0.3-0.8c0-0.1-0.1-0.2,0-0.3
		l2.5-24.8c0-1.5,0.1-2.6,0.2-3.1c-0.1-2.2,0.8-3,1.4-3.2c0.1,0,0.2-0.1,0.3-0.1c0.2,0,0.3,0.1,0.5,0.2c0.2,0.2,0.6,0.3,1.2,0.3
		c0.3,0,0.8-0.1,1.4-0.2c0.3-0.1,0.6-0.1,0.9-0.2c1.3-0.4,2.1-0.4,2.4-0.4c0.8,0,1.5,0.3,2,0.8c0.6,0.7,0.9,1.7,0.8,3.2
		c-0.1,1.7,0.2,3.9,0.9,6.5c0.8,3.3,1.1,5.4,1.1,6.9v1.3c0,0.3-0.1,0.5-0.3,0.6c-0.7,0.4-1.6,0.7-2.8,0.8c-0.4,0.1-0.9,0.1-1.4,0.1
		c-0.2,0-0.4,0-0.7,0c0.1,0.1,0.1,0.1,0.2,0.2c0.1,0.1,0.2,0.3,0.2,0.5c0,0.4,0,0.6,0.1,0.8c0.5-0.2,0.9-0.4,1.5-0.7l0.4-0.2
		c0.5-0.2,1.1-0.5,1.6-0.6c0.1,0,0.1,0,0.2,0c0.2,0,0.4,0.1,0.6,0.3c0.5,0.6,0.9,1.6,1,2.7c0.1,1.9,0.2,2.3,0.2,2.3
		c0,0.1,0,0.1,0,0.1c0,0.1,0.1,0.4,0.1,0.6c0.1,0.7,0.3,1.7,0.6,3c0.3,1.6,0.5,2.8,0.5,3.8c0,0.5,0,1-0.1,1.5
		c-0.1,0.2-0.2,0.4-0.4,0.5c-0.1,0-0.2,0.1-0.3,0.1c-0.1,0-0.2,0-0.3-0.1c-0.3-0.2-0.6-0.2-1-0.2c-0.3,0-0.9,0.1-1.5,0.3
		c-0.6,0.2-1.4,0.3-1.9,0.3c-0.3,0-0.5-0.2-0.7-0.4c-0.2-0.5-0.7-1.5-0.8-2.9c-0.1-0.6-0.2-1.2-0.3-1.6c-0.1-0.4-0.1-0.8-0.2-0.9
		c-0.1-0.2-0.1-0.5,0-0.6c-0.1-0.1-0.3-0.2-0.4-0.3c-0.3-0.1-1.2-0.6-1.2-1.3c0-0.5,0.3-0.8,0.8-1.1c-0.1-0.2-0.1-0.4-0.1-0.7
		c0,0,0-0.1,0-0.1c0,0,0,0,0,0c-0.5,0.2-1,0.3-1.4,0.4c-0.2,0-0.7,0.1-1,0.2c0,2.5-0.5,4-1.3,4.8c-0.1,0.1-0.3,0.2-0.5,0.2
		c-0.1,0-0.1,0-0.2,0c0,0,0,0.1-0.1,0.1c-0.1,0.2-0.2,0.3-0.3,0.4c0.3-0.3,0.6-0.4,0.9-0.4c0.8,0,1.2,0.8,1.5,1.6
		c0,0.1,0.1,0.2,0.1,0.3v0.5C139.8,47.2,139.3,48.5,137,48.7C137,48.7,137,48.7,137,48.7z M140,31.4c0,0.3,0,0.6,0.1,0.7
		c0.1,0.2,0.4,0.2,0.7,0.2c0.2,0,0.4-0.1,0.6-0.2c0.2-0.1,0.3-0.1,0.4-0.1c-0.1-1.1-0.3-2.2-0.4-3.3c-0.1-1.2-0.3-2.4-0.4-3.6
		c-0.1-0.5-0.2-1-0.2-1.5L140,31.4z M128.3,45.6c-0.1,0-0.1,0-0.2,0c-0.5-0.1-0.9-0.3-1.4-0.6c-0.7-0.3-1.1-0.8-1.2-1.4
		c-0.1-0.2,0-0.4,0.1-0.6c0.7-1,1.1-2,1.1-2.9v-0.8c0,0,0-0.1,0-0.1c0.2-1.3,0.1-2.2,0-2.8c0,0,0,0,0,0c-0.2,0-0.4-0.1-0.5-0.2
		c-0.2-0.2-0.4-0.4-0.5-0.7c0,0,0,0,0,0c0,0,0,0,0,0c0,0,0,0,0,0c-0.1,0.1-0.3,0.1-0.4,0.1c-0.1,0-0.2,0-0.3-0.1
		c-0.3-0.1-0.5-0.4-0.4-0.8c0-0.4,0-0.9-0.9-1.4c-0.6-0.4-1.1-0.6-1.4-0.9c-0.1,0.5,0,1.1,0.1,1.8c0.5,2.8,0.3,3.3,0.3,3.6
		c-0.2,0.8-0.6,1.5-1.3,1.9c0.5,0.2,1.1,0.8,0.8,2.2c-0.2,0.7-0.1,0.8,0,0.9c0.2,0.2,0.3,0.5,0.2,0.7c-0.1,0.3-0.3,0.5-0.5,0.5
		c-0.3,0.1-0.5,0.1-0.7,0.2c-0.3,0.1-0.5,0.1-0.6,0.2c-0.3,0.1-0.4,0.2-0.4,0.2c0,0.3-0.2,0.5-0.4,0.7c-0.1,0.1-0.2,0.1-0.3,0.1
		c-0.2,0-0.3-0.1-0.5-0.2l-1.3-1c-0.1,0-0.3,0.1-0.4,0.1l-0.3,0.1c0,0-0.1,0-0.1,0c-0.2,0-0.5-0.1-0.6-0.3c-0.3-0.5-0.4-0.9-0.4-1.5
		v-1.2c0-0.4,0.3-0.8,0.8-0.8c0.2,0,0.5-0.1,0.9-0.2c0.2-0.1,0.4-0.1,0.5-0.2c0,0,0.1,0,0.1-0.1h-0.2c-0.4,0-0.7-0.3-0.7-0.7
		c-0.7-8.2-1-16.5-0.9-24.9c0-0.3,0.2-0.6,0.5-0.7c0.6-0.2,1.5-0.4,2.8-0.4c1,0,1.9-0.1,2.3-0.3c0.1,0,0.2-0.1,0.3-0.1
		c0.3,0,0.5,0.1,0.7,0.4l1.7,3.1c0,0.1,0.1,0.2,0.1,0.3c0.2,1.4,0.7,3,1.8,5.1c-0.1-0.5-0.2-1-0.2-1.4c0-0.2,0-0.4,0.1-0.6
		c0.1-0.2,0.2-0.3,0.2-0.5c0-0.1,0-0.3-0.1-0.5c0-0.1-0.2-0.7-0.2-0.8c-0.1-0.3-0.1-0.6-0.1-0.9v-0.9c0-0.4,0.1-1,0.4-1.5
		c0.1-0.2,0.2-0.3,0.2-0.4c0-0.1,0.1-0.2,0.1-0.2c0-0.1,0.1-0.3,0.2-0.4c0.2-0.2,0.4-0.3,0.6-0.3c0.4,0,0.7,0.3,0.8,0.4
		c0,0,0.1,0.1,0.1,0.1c0.5-0.1,1-0.1,1.4-0.1c0.7,0,1.4,0.1,2.2,0.4c0.3,0.1,0.5,0.4,0.5,0.7l-0.3,23.4l0.1,0.1
		c0.1,0.1,0.2,0.3,0.2,0.5v5c0,0,0,0.1,0,0.1c-0.2,0.9-0.8,1.4-1.6,1.4c-0.1,0-0.5,0-1-0.1c-0.3-0.1-0.4-0.1-0.6-0.1
		c-0.1,0-0.2,0-0.3,0.1C128.7,45.5,128.5,45.6,128.3,45.6z M125.7,25c0.2,0.2,0.3,0.4,0.5,0.6v-1.4c0-0.4,0-0.7,0-1v1.2
		C126.1,24.6,126,24.9,125.7,25C125.7,25,125.7,25,125.7,25z M122.2,22.5l-0.5-0.5c0,0-0.1,0.1-0.1,0.1
		C121.7,22.2,122,22.3,122.2,22.5z M110.8,45.5c-0.1,0-0.1,0-0.2,0c-0.5-0.1-0.9-0.3-1.4-0.6c-0.6-0.3-1.1-0.8-1.2-1.4
		c-0.1-0.2,0-0.4,0.1-0.6c0.7-1,1.1-2,1.1-2.9v-0.8c0,0,0-0.1,0-0.1c0.2-1.3,0.1-2.2,0-2.8c0,0,0,0,0,0c-0.2,0-0.4-0.1-0.5-0.2
		c-0.2-0.2-0.4-0.4-0.5-0.7c0,0,0,0,0,0c0,0,0,0,0,0c0,0,0,0,0,0c-0.1,0.1-0.3,0.1-0.4,0.1c-0.1,0-0.2,0-0.3-0.1
		c-0.3-0.1-0.5-0.4-0.4-0.8c0-0.4,0-0.9-0.9-1.4c-0.6-0.4-1.1-0.6-1.4-0.9c0,0.5,0,1.1,0.1,1.8c0.5,2.8,0.3,3.3,0.3,3.6
		c-0.2,0.8-0.6,1.5-1.3,1.9c0.1,0,0.1,0,0.2,0.1c0.6,0.2,1.2,0.8,0.8,2.2c-0.2,0.7-0.1,0.8,0,0.9c0.2,0.2,0.3,0.5,0.2,0.7
		c-0.1,0.3-0.3,0.5-0.5,0.5c-0.3,0.1-0.5,0.1-0.7,0.2c-0.3,0.1-0.5,0.1-0.6,0.2c-0.3,0.1-0.4,0.2-0.4,0.2c0,0.3-0.2,0.5-0.4,0.7
		c-0.1,0.1-0.2,0.1-0.3,0.1c-0.2,0-0.3-0.1-0.5-0.2l-1.3-1c-0.1,0-0.3,0.1-0.4,0.1l-0.3,0.1c0,0-0.1,0-0.1,0c-0.2,0-0.5-0.1-0.6-0.3
		c-0.3-0.5-0.4-0.9-0.4-1.5v-1.2c0-0.4,0.3-0.8,0.8-0.8c0.2,0,0.5-0.1,0.9-0.2c0.2-0.1,0.4-0.1,0.5-0.2c0.1-0.1,0.3-0.1,0.4-0.2H100
		c-0.4,0-0.7-0.3-0.7-0.7c-0.8-9-1-17.1-0.7-24.8c0-0.3,0.2-0.6,0.5-0.7c0.6-0.2,1.5-0.4,2.8-0.4c1,0,1.9-0.1,2.3-0.3
		c0.1,0,0.2-0.1,0.3-0.1c0.3,0,0.5,0.1,0.7,0.4l1.7,3.1c0,0.1,0.1,0.2,0.1,0.3c0.2,1.4,0.7,3,1.8,5.1c-0.1-0.5-0.2-1-0.2-1.4
		c0-0.2,0-0.4,0.1-0.6c0.1-0.2,0.2-0.3,0.2-0.5c0-0.1,0-0.3-0.1-0.5c0-0.1-0.1-0.3-0.1-0.5c0-0.2-0.1-0.3-0.1-0.4
		c-0.1-0.3-0.1-0.6-0.1-0.9v-0.9c0-0.4,0.1-1,0.4-1.5c0.1-0.2,0.2-0.3,0.2-0.4c0-0.1,0.1-0.2,0.1-0.2c0-0.1,0.1-0.3,0.2-0.4
		c0.2-0.2,0.4-0.3,0.6-0.3c0.4,0,0.7,0.3,0.8,0.4c0,0,0.1,0.1,0.1,0.1c0.5-0.1,1-0.1,1.5-0.1c0.6,0,1.2,0.1,1.8,0.3
		c0.3,0.1,0.5,0.4,0.5,0.7l-0.3,23.4l0.1,0.1c0.1,0.1,0.2,0.3,0.2,0.5v5c0,0,0,0.1,0,0.1c-0.2,0.9-0.8,1.4-1.6,1.4
		c-0.1,0-0.5,0-1-0.1c-0.3-0.1-0.4-0.1-0.6-0.1c-0.1,0-0.2,0-0.3,0.1C111.2,45.4,111,45.5,110.8,45.5z M108.4,25
		c0.2,0.2,0.3,0.4,0.5,0.6v-1.4c0-0.3,0-0.7,0-1v1.2C108.8,24.6,108.6,24.9,108.4,25C108.4,25,108.4,25,108.4,25z M104.8,22.5
		l-0.5-0.5c0,0-0.1,0.1-0.1,0.1C104.4,22.2,104.6,22.3,104.8,22.5z M176.5,45.2c-0.4,0-0.8-0.1-1.3-0.2c-0.2,0-0.4-0.2-0.5-0.3
		c0,0,0-0.1-0.1-0.1c-0.1,0-0.2,0.1-0.4,0.1c-0.3,0.1-0.6,0.1-0.7,0.1c-0.4,0-1.2-0.2-1.4-1.4c0-0.1,0-0.3,0-0.4
		c0.2-0.5,0.3-1.1,0.3-1.7c0-0.3-0.1-0.9-0.2-1.6c0,0-0.1-1.1-0.1-1.4c-0.1-0.6-0.1-1-0.1-1.3c0-0.5,0-0.9,0.1-1.3v-9.4
		c0-1.9,0.1-3.6,0.3-4.9c0-0.1,0-0.1,0-0.2c-0.1-0.2-0.2-0.4-0.2-0.6c0-0.2,0.1-0.4,0.1-0.6c0-0.1,0.1-0.2,0.1-0.3
		c0-0.1,0.1-0.2,0.1-0.3c0,0,0,0,0,0c-0.3-0.3-0.3-0.8,0-1.1c0,0,0.1-0.1,0.1-0.3c0-0.1-0.1-0.3-0.1-0.4l-0.2-0.6
		c-0.1-0.3-0.1-0.6-0.1-0.8c0-0.3,0.1-0.6,0.2-0.8c-0.1-0.2-0.1-0.3,0-0.5c0-0.1,0.1-0.2,0.2-0.3v-0.6c0-0.3,0.2-0.6,0.5-0.7
		c0.4-0.1,0.7-0.1,1.1-0.1c0.3,0,0.7,0.1,1.2,0.2l0.8,0.1c0.3,0.1,0.6,0.1,0.7,0.1c0.6,0,0.7-0.2,0.7-0.2c0.1-0.2,0.4-0.3,0.6-0.3
		c0.1,0,0.2,0,0.4,0.1l0.9,0.5c0.2,0.1,0.4,0.4,0.4,0.7L179,37.1c0,0.1,0,0.2-0.1,0.3c0.1,0.3,0.2,0.8-0.1,1.4
		c-0.1,0.1-0.1,0.2-0.1,0.3c0.2,0.2,0.3,0.6,0.2,0.9c0,0-0.1,0.5-0.2,2.7C178.5,45,177.1,45.2,176.5,45.2z M161.6,44.9
		c-0.2,0-0.5-0.1-0.8-0.1l-0.3-0.1c-0.2,0-0.3-0.1-0.4-0.1c-0.1,0-0.2-0.1-0.2-0.1c0,0-0.1,0-0.2,0.1c-0.1,0.1-0.3,0.2-0.5,0.2h-4.8
		c-0.4,0-0.8-0.3-0.8-0.8v-4.9c-0.1-1.6-0.6-2.9-1.6-3.6c-0.2-0.1-0.3-0.3-0.3-0.5c-0.1-1.4-0.2-2.9-0.2-4.6c0-0.7,0-1.5-0.1-2.2
		l0-13.3c0-0.4,0.3-0.7,0.7-0.7c1-0.1,2.3-0.2,4-0.2c1.7,0,3.8,0.1,6.3,0.2c0.1,0,0.1,0,0.2,0c1.5,0.4,2.8,1.4,3.7,3
		c0.9,1.5,1.3,2.9,1.3,4.5c0,1.4-0.4,2.9-1.2,4.5c-0.6,1.2-1.4,2.2-2.4,3.1c0.4,0.1,0.7,0.3,1,0.6c0.1-0.1,0.2-0.2,0.3-0.3
		c0.6-0.5,1.2-0.9,1.8-0.9c0.1,0,0.3,0,0.4,0c0.2,0,0.3,0.1,0.4,0.2c1.3,1.5,2,3.5,2,5.9c0,2.1-0.4,4-1.4,6c0,0.1-0.1,0.1-0.1,0.2
		c-2.2,2.4-4.2,3.5-6.2,3.7C162,44.9,161.8,44.9,161.6,44.9z M159,36.5c0,0.8,0,1.5,0.1,2.1c0.4-0.2,0.7-0.2,1-0.2h1.5
		c0.4-0.3,0.7-1,0.8-1.9c0.2-2.2,0.3-3.2,0.3-3.2c0,0,0,0,0,0c0,0-0.1-0.2-0.6-0.7c-0.2-0.2-0.4-0.4-0.5-0.6
		c-0.3,0.1-0.6,0.2-0.9,0.2c-0.1,0-0.2,0-0.3,0c-0.3,0.5-0.8,0.6-1.4,0.7c0,0,0,0,0,0V36.5z M159.1,25.8c0,0,0.1-0.1,0.3-0.4
		c0.4-0.5,0.9-1.1,1.6-1.1c0.1,0,0.2,0,0.3,0c0.1-0.2,0.2-0.4,0.3-0.6c0.3-0.5,0.4-0.8,0.4-0.8c-0.1,0-0.1,0-0.2,0
		c-0.1,0-0.2,0-0.3-0.1c-0.2-0.1-0.3-0.2-0.4-0.3l0,0c-0.1-0.1-0.2-0.2-0.4-0.3c-0.3-0.3-0.5-0.6-0.5-0.9c-0.1-0.3-0.3-0.5-0.4-0.8
		c-0.2-0.3-0.3-0.6-0.5-0.9c-0.1-0.1-0.2-0.3-0.4-0.3c0.1,1.5,0.1,3.5,0.1,6.4H159.1z M78.1,44.5c-0.2,0-0.6,0-1-0.2
		c-0.1,0-0.2,0.1-0.3,0.1c-0.1,0-0.3,0-0.4-0.1l-0.1-0.1h-1c-0.4,0-0.8,0-0.9,0.1c-0.1,0.1-0.3,0.1-0.4,0.1c-0.2,0-0.3-0.1-0.5-0.2
		c-1.1-0.8-1.7-2.3-1.9-4.5c-0.3-3.4-0.5-4.2-0.6-4.4c-0.5-1.1-0.8-2.2-0.9-3.4c-0.1,0.4-0.4,0.8-0.6,1.2c-0.6,0.8-0.8,1.9-0.6,3.4
		c0.2,2.2,0.2,3.6-0.1,4.4l-0.1,0.1c0,0,0,0.1,0,0.1c0,0.1,0.1,0.4,0.2,0.6c0.1,0.2,0.1,0.3,0.1,0.4c0.1,0.2,0.1,0.4,0.1,0.6
		c0,0.5-0.2,0.9-0.5,1.2c-0.1,0.1-0.3,0.2-0.5,0.2c-0.1,0-0.3,0-0.4-0.1c-0.1-0.1-0.3-0.1-0.7-0.1c-0.3,0-0.7,0-1.2,0.1
		c-0.4,0.1-0.8,0.1-1.1,0.1c-0.9,0-1.5-0.3-2-0.8c-0.6-0.6-0.9-1.4-0.9-2.3c0-0.4,0.1-0.9,0.2-1.5l0.1-0.7c0.1-0.5,0.1-1,0.1-1.3
		c0-0.4-0.1-0.8-0.2-1.1c-0.1-0.2-0.1-0.3-0.1-0.5c0.2-0.8,0.3-2.2,0.3-3.8v-3.4c-0.2-0.1-0.3-0.3-0.3-0.6c0-0.3,0.2-0.6,0.5-0.7
		c0.1-0.1,0.3-0.2,0.4-0.3c-0.3-0.5-0.4-1.1-0.4-1.8c0-0.3,0.1-0.7,0.1-1.1c0-0.2,0.2-1.3,0.2-1.3c0.1-0.5,0.1-0.9,0.1-1.1
		c0-0.4,0-0.9-0.2-1.7l-0.1-0.7c-0.1-0.5-0.1-1-0.1-1.3c0-0.8,0.1-1.8,0.3-3.2c0.2-1.2,0.3-2.3,0.3-3.1c0-0.2,0.1-0.4,0.2-0.5
		c0.1-0.1,0.3-0.2,0.5-0.2c0,0,5.4,0.3,5.4,0.3c0.4,0,0.7,0.4,0.7,0.7c0,0.8-0.1,2.1-0.4,4.1C69.3,18,69,19.4,69,20.2
		c0.1-0.1,0.2-0.3,0.3-0.4c0.9-1.3,1.2-2.3,1.2-2.8c0-0.3,0-0.5-0.1-0.7c-0.1-0.3,0-0.6,0.3-0.8c0.2-0.2,0.6-0.7,0.9-1.7
		c0.3-1.1,0.8-1.9,1.4-2.3c0.1-0.1,0.3-0.2,0.5-0.2c0,0,0.1,0,0.1,0l4.6,0.6c0.4,0,0.7,0.4,0.7,0.7v0.9c0,0.3-0.2,0.6-0.6,0.7
		c-0.4,1-0.8,1.9-1.1,2.7c-0.5,1.3-1.2,2.3-1.9,3.1c-0.2,0.7-0.2,1.4-0.2,2.1c0,1.4,0.4,3.5,1.2,6.1c0.8,2.7,1.2,5,1.4,6.6
		c0,0.3,0.2,1.2,0.4,2.2l0.3,1.4c0.2,0.9,0.3,1.7,0.5,2.5c0.1,0.4,0.2,0.8,0.2,1.2c0,0,0,0.1,0,0.1c0,0.5,0,1-0.1,1.5
		C78.7,44.3,78.4,44.5,78.1,44.5z M69.5,30.1c0.2,0.1,0.4,0.3,0.5,0.4c0-0.3,0-0.5,0-0.8C69.8,29.9,69.7,30,69.5,30.1z"/>
	<path d="M63.8,12.1l5.4,0.3c0,0.9-0.1,2.2-0.4,4c-0.3,1.8-0.5,3.2-0.5,4c0,0.7,0.1,1.4,0.3,2c0,0,0,0.2,0,0.6
		c0,0.3,0.1,0.4,0.3,0.5c-0.2-0.9,0.2-2,1-3.3c0.9-1.3,1.3-2.5,1.3-3.2c0-0.3,0-0.6-0.1-0.9c0.4-0.3,0.8-1,1.1-2
		c0.3-1,0.7-1.6,1.1-1.9l4.6,0.6v0.9h-0.3c-0.5,1.1-0.9,2.1-1.3,3.2c-0.5,1.2-1.1,2.2-1.8,3c-0.2,0.8-0.3,1.6-0.3,2.5
		c0,1.4,0.4,3.6,1.2,6.3c0.8,2.9,1.2,5,1.3,6.4c0,0.5,0.3,1.7,0.7,3.7c0.3,1.4,0.5,2.7,0.7,3.7c0,0.5,0,0.9-0.1,1.3
		c-0.5,0-0.8-0.1-0.9-0.3l-0.3,0.2l-0.3-0.2c-0.1,0-0.5,0-1.2,0c-0.6,0-1,0-1.3,0.2c-0.9-0.7-1.4-2-1.6-4c-0.2-2.6-0.4-4.1-0.6-4.6
		c-0.8-1.8-1.1-3.9-0.9-6.2l-0.5-0.9c0,0.4-0.2,0.8-0.6,1.1c-0.3,0.3-0.7,0.5-1.1,0.8c-0.1,0-0.2,0-0.3,0c-0.2,0-0.5-0.1-0.8-0.3
		c-0.3-0.2-0.5-0.3-0.6-0.3c-0.1,0.2-0.2,0.3-0.4,0.3c-0.1,0-0.2,0-0.3-0.1c-0.1-0.1-0.3-0.1-0.4-0.1c-0.1,0-0.2,0.1-0.3,0.2
		c0.2,0.5,0.9,0.8,2.1,0.9c1.2,0.1,1.8,0.4,1.8,0.8c0,0.3-0.2,0.8-0.6,1.4c-0.7,0.9-0.9,2.2-0.7,3.9c0.2,1.9,0.2,3.3-0.1,4.1
		C68,40.9,68,41,68,41.2s0.1,0.5,0.2,0.8c0.1,0.4,0.2,0.6,0.2,0.8c0,0.3-0.1,0.5-0.3,0.7c-0.3-0.2-0.7-0.2-1.1-0.2
		c-0.4,0-0.8,0.1-1.3,0.1c-0.4,0.1-0.7,0.1-1,0.1c-0.6,0-1.1-0.2-1.4-0.5c-0.5-0.5-0.7-1.1-0.7-1.8c0-0.4,0.1-1,0.2-1.7
		c0.1-0.7,0.2-1.3,0.2-1.7c0-0.5-0.1-1-0.3-1.4c0.2-0.9,0.3-2.4,0.3-4c0-2.6,0-3.9,0-4.2c0.1,0,0.3,0,0.6,0c0.2,0,0.4-0.1,0.5-0.3
		c-0.6-0.6-0.9-1.3-0.9-2.2c0-0.4,0.1-0.9,0.2-1.7c0.1-0.8,0.2-1.4,0.2-1.8s0-1-0.2-1.8c-0.1-0.8-0.2-1.4-0.2-1.8
		c0-0.7,0.1-1.7,0.3-3.1C63.7,13.9,63.8,12.8,63.8,12.1 M191.6,13c1.5,0,2.1,1,2,3.2c-0.1,1.7,0.2,4,0.9,6.7c0.7,3,1.1,5.2,1.1,6.7
		c0,0.4,0,0.9,0,1.3c-0.6,0.4-1.4,0.6-2.4,0.7c-0.8,0.1-1.7,0.1-2.7,0.2c-0.3-2.4-0.5-4.7-0.8-6.9c-0.4-2.8-0.8-5-1.2-6.7l-1.2,13.1
		c-0.1,1.1,0.4,1.7,1.5,1.7c0.3,0,0.7-0.1,1-0.3c0,0,0.1,0,0.1,0c0.2,0,0.6,0.2,1,0.6c0,1,0.2,1.5,0.6,1.7c0.5-0.3,1.1-0.6,1.9-0.9
		c0.7-0.3,1.3-0.6,2-0.8c0.4,0.5,0.7,1.3,0.8,2.4c0.1,1.4,0.2,2.4,0.3,2.6c0.1,0.6,0.4,1.8,0.8,3.8c0.3,1.5,0.5,2.8,0.4,3.6
		c0,0.5,0,0.9-0.1,1.3c-0.4-0.2-0.8-0.3-1.3-0.3c-0.4,0-1,0.1-1.7,0.3c-0.8,0.2-1.4,0.3-1.7,0.3c-0.3-0.6-0.6-1.5-0.7-2.7
		c-0.3-1.6-0.4-2.6-0.5-2.8c0.1-0.1,0.1-0.3,0.1-0.4c0-0.4-0.3-0.6-0.8-0.9c-0.5-0.2-0.8-0.5-0.8-0.6c0-0.2,0.3-0.4,0.9-0.8
		c-0.1-0.2-0.2-0.5-0.3-1.1c0-0.6-0.2-0.9-0.4-1.1c-0.4,0.4-1,0.6-1.8,0.7c-0.8,0.1-1.3,0.2-1.6,0.4c0,2.4-0.3,4-1.1,4.8
		c-0.1,0-0.1,0-0.2,0c-0.3,0-0.5,0.2-0.7,0.5c-0.3,0.5-0.6,0.8-0.8,0.9l0.3,0.3c-0.3,0.2-0.7,0.3-1.2,0.3c-0.8,0-1.2,0-1.3,0
		l-0.3-0.8l2.5-24.8c0-1.5,0.1-2.7,0.2-3.2c-0.1-1.3,0.2-2.2,0.9-2.6c0.4,0.3,1,0.4,1.6,0.4c0.5,0,1.3-0.2,2.4-0.4
		C190.3,13.1,191.2,13,191.6,13 M143.5,13.1c1.5,0,2.1,1,2,3.2c-0.1,1.7,0.2,4,0.9,6.7c0.7,3,1.1,5.2,1.1,6.7c0,0.4,0,0.9,0,1.3
		c-0.6,0.4-1.4,0.6-2.4,0.7c-0.8,0.1-1.7,0.1-2.7,0.2c-0.3-2.4-0.5-4.7-0.8-6.9c-0.4-2.8-0.8-5-1.2-6.7l-1.2,13.1
		c-0.1,1.1,0.4,1.7,1.5,1.7c0.3,0,0.7-0.1,1-0.3c0,0,0.1,0,0.1,0c0.2,0,0.6,0.2,1,0.6c0,1,0.2,1.5,0.6,1.7c0.5-0.3,1.1-0.6,1.9-0.9
		c0.7-0.3,1.3-0.6,2-0.8c0.4,0.5,0.7,1.3,0.8,2.4c0.1,1.4,0.2,2.4,0.3,2.6c0.1,0.5,0.3,1.8,0.7,3.7c0.3,1.5,0.5,2.8,0.5,3.7
		c0,0.5,0,0.9-0.1,1.3c-0.4-0.2-0.8-0.3-1.3-0.3c-0.4,0-1,0.1-1.7,0.3c-0.8,0.2-1.4,0.3-1.7,0.3c-0.3-0.6-0.6-1.5-0.7-2.7
		c-0.3-1.6-0.4-2.6-0.5-2.8c0.1-0.1,0.1-0.3,0.1-0.4c0-0.4-0.3-0.6-0.8-0.9c-0.5-0.2-0.8-0.5-0.8-0.6c0-0.2,0.3-0.4,0.9-0.8
		c-0.1-0.2-0.2-0.5-0.3-1.1c0-0.6-0.2-0.9-0.4-1.1c-0.4,0.4-1,0.6-1.8,0.7c-0.8,0.1-1.3,0.2-1.6,0.4c0,2.4-0.3,4-1.1,4.8
		c-0.1,0-0.1,0-0.2,0c-0.3,0-0.5,0.2-0.7,0.5c-0.3,0.5-0.6,0.8-0.8,0.9l0.3,0.3c-0.3,0.2-0.7,0.3-1.2,0.3c-0.8,0-1.2,0-1.3,0
		l-0.3-0.8l2.5-24.8c0-1.5,0.1-2.7,0.2-3.2c-0.1-1.3,0.2-2.2,0.9-2.6c0.4,0.3,1,0.4,1.6,0.4c0.5,0,1.3-0.2,2.4-0.4
		C142.3,13.2,143.1,13.1,143.5,13.1 M90.2,13.1c1.5,0,2.1,1,2,3.2c-0.1,1.7,0.2,4,0.9,6.7c0.7,3,1.1,5.2,1.1,6.7c0,0.4,0,0.9,0,1.3
		c-0.6,0.4-1.4,0.6-2.4,0.7c-0.9,0.1-1.7,0.1-2.7,0.2c-0.3-2.4-0.5-4.6-0.8-6.9c-0.3-2.8-0.7-5-1.2-6.7l-1.2,13.1
		c-0.1,1.1,0.4,1.7,1.5,1.7c0.4,0,0.7-0.1,1-0.3c0.1,0,0.1,0,0.2,0c0.3,0,0.5,0.2,1,0.6c0,0.9,0.2,1.5,0.6,1.7
		c0.5-0.3,1.1-0.6,1.9-0.9c0.7-0.3,1.4-0.5,2-0.8c0.4,0.5,0.6,1.3,0.8,2.4c0.1,1.4,0.3,2.4,0.3,2.6c0,0.5,0.3,1.8,0.7,3.7
		c0.3,1.5,0.5,2.8,0.5,3.7c0,0.4,0,0.9-0.1,1.3c-0.4-0.2-0.9-0.3-1.3-0.3s-1,0.1-1.7,0.3c-0.8,0.2-1.4,0.3-1.7,0.3
		c-0.3-0.6-0.6-1.5-0.7-2.7c-0.3-1.6-0.4-2.6-0.5-2.8c0.1-0.2,0.1-0.3,0.1-0.4c0-0.3-0.3-0.6-0.8-0.9c-0.5-0.3-0.8-0.5-0.8-0.6
		c0-0.2,0.3-0.4,0.9-0.8c-0.2-0.2-0.3-0.5-0.3-1.1c-0.1-0.6-0.2-0.9-0.4-1.1c-0.4,0.3-1,0.5-1.8,0.7c-0.8,0.1-1.4,0.2-1.6,0.4
		c0.1,2.4-0.3,4-1.1,4.8c-0.1,0-0.1,0-0.2,0c-0.3,0-0.5,0.2-0.7,0.5c-0.3,0.5-0.6,0.8-0.8,0.9l0.3,0.3c-0.2,0.2-0.6,0.3-1.2,0.3
		c-0.8,0-1.3,0-1.3,0l-0.3-0.8l2.5-24.8c0-1.5,0.1-2.7,0.2-3.2c-0.1-1.3,0.2-2.2,0.9-2.6c0.4,0.3,0.9,0.4,1.6,0.4
		c0.5,0,1.3-0.1,2.4-0.4C89.1,13.3,89.8,13.1,90.2,13.1 M178.2,13.7l0.9,0.5l-0.9,22.9l-0.3,0.3c0.4,0.2,0.4,0.6,0.2,1.1
		c-0.2,0.5-0.2,0.9,0.1,1.1c-0.1,0.2-0.2,1.2-0.3,3c-0.1,1.2-0.6,1.8-1.4,1.8c-0.3,0-0.7-0.1-1.1-0.2c-0.2-0.3-0.5-0.4-0.8-0.4
		c-0.1,0-0.3,0.1-0.5,0.1c-0.2,0.1-0.4,0.1-0.5,0.1c-0.4,0-0.6-0.3-0.7-0.8c0.2-0.6,0.3-1.2,0.3-1.9c0-0.4-0.1-1.2-0.2-2.1
		c-0.1-1-0.2-1.7-0.2-2.1c0-0.5,0-0.8,0.1-1.2c0-0.8,0-2.4,0-4.6c0-2.1,0-3.8,0-4.9c0-1.8,0.1-3.5,0.3-4.8l0.2-0.3
		c-0.2-0.2-0.3-0.4-0.3-0.6c0-0.1,0.1-0.3,0.2-0.6c0.1-0.3,0.2-0.5,0.2-0.6c0-0.2-0.1-0.3-0.3-0.5c0.2-0.2,0.3-0.5,0.3-0.8
		c0-0.2-0.1-0.5-0.2-0.9c-0.1-0.4-0.2-0.7-0.2-0.9c0-0.3,0.1-0.6,0.3-0.8l-0.2-0.3c0.2-0.1,0.2-0.3,0.2-0.5c0-0.3,0-0.5,0-0.6
		c0.3-0.1,0.5-0.1,0.8-0.1c0.3,0,0.8,0.1,1.4,0.2c0.6,0.1,1.1,0.2,1.3,0.2C177.4,14.2,177.9,14.1,178.2,13.7 M121.7,13.8l1.7,3.1
		c0.2,1.7,0.9,3.5,1.9,5.4v2c-0.6-0.4-1.2-0.9-1.9-1.6c-0.6-0.6-1.2-1.2-1.8-1.8c0,0.3-0.2,0.5-0.6,0.6c-0.4,0-0.6,0.2-0.6,0.4
		c0,0.1,0,0.3,0.1,0.4c1.1,0.7,2.3,1.5,3.5,2.2c1.5,1,2.2,2.1,2.2,3.5c0,0.2,0,0.4,0,0.6l0.9,0.9c0.2-0.1,0.3-0.3,0.3-0.4
		c0-0.1-0.1-0.3-0.3-0.5c-0.1-0.3-0.2-0.4-0.2-0.6c0-0.1,0-1.4,0-3.9c0-1.5-0.2-2.9-0.4-3.8c0.2-0.3,0.3-0.6,0.3-0.9
		c0-0.3-0.1-0.6-0.2-1.1c-0.1-0.5-0.2-0.8-0.2-1.1c0-0.2,0-0.3,0-0.5s0-0.3,0-0.4c0-0.3,0.1-0.7,0.3-1.1c0.2-0.4,0.4-0.7,0.4-0.8
		c0,0,0.1,0,0.1,0c0.1,0,0.2,0.1,0.3,0.1c0.1,0.1,0.2,0.3,0.3,0.4c0.6-0.1,1.2-0.2,1.7-0.2c0.6,0,1.3,0.1,1.9,0.3l-0.3,23.7l0.3,0.3
		v5c-0.1,0.5-0.4,0.8-0.8,0.8c-0.1,0-0.4,0-0.7-0.1c-0.4-0.1-0.6-0.1-0.8-0.1c-0.3,0-0.6,0.1-0.8,0.3c-0.4-0.1-0.8-0.3-1.2-0.5
		c-0.4-0.2-0.7-0.5-0.8-0.9c0.8-1.1,1.2-2.2,1.2-3.4c0-0.3,0-0.5,0-0.8c0.3-1.8,0.1-3.3-0.5-4l-0.3,0.3c-0.2-0.2-0.3-0.3-0.4-0.5
		c-0.2-0.3-0.4-0.4-0.7-0.4c-0.2,0-0.3,0-0.4,0.1c0.1-0.9-0.3-1.6-1.3-2.1c-1.2-0.7-1.9-1.2-2.1-1.6c-0.4,0.7-0.5,1.8-0.3,3.3
		c0.3,1.7,0.4,2.9,0.3,3.3c-0.2,1-0.9,1.7-2.2,1.9c-0.1-0.2-0.5-0.2-0.9-0.2c-0.6,0-0.9,0-1,0c-0.7-8.2-1-16.5-0.9-24.8
		c0.5-0.2,1.3-0.3,2.5-0.3C120.3,14.1,121.2,14,121.7,13.8 M104.4,13.8l1.7,3.1c0.2,1.7,0.9,3.5,1.9,5.4v2c-0.6-0.4-1.2-0.9-1.9-1.6
		c-0.6-0.6-1.2-1.2-1.8-1.8c0,0.3-0.2,0.5-0.6,0.6c-0.4,0-0.6,0.2-0.6,0.4c0,0.1,0,0.3,0.1,0.4c1.1,0.7,2.3,1.5,3.5,2.2
		c1.5,1,2.2,2.1,2.2,3.5c0,0.2,0,0.4,0,0.6l0.9,0.9c0.2-0.1,0.3-0.3,0.3-0.4c0-0.1-0.1-0.3-0.3-0.5c-0.1-0.3-0.2-0.4-0.2-0.6
		c0-0.1,0-1.4,0-3.9c0-1.5-0.2-2.9-0.4-3.8c0.2-0.3,0.3-0.6,0.3-0.9c0-0.3-0.1-0.6-0.2-1.1c-0.1-0.5-0.2-0.8-0.2-1.1
		c0-0.2,0-0.3,0-0.5s0-0.3,0-0.4c0-0.3,0.1-0.7,0.3-1.1c0.2-0.4,0.4-0.7,0.4-0.8c0,0,0.1,0,0.1,0c0.1,0,0.2,0.1,0.3,0.1
		c0.1,0.1,0.2,0.3,0.3,0.4c0.7-0.2,1.3-0.2,1.8-0.2c0.6,0,1.1,0.1,1.6,0.2l-0.3,23.7l0.3,0.3v5c-0.1,0.5-0.4,0.8-0.8,0.8
		c-0.1,0-0.4,0-0.7-0.1c-0.4-0.1-0.6-0.1-0.8-0.1c-0.3,0-0.6,0.1-0.8,0.3c-0.4-0.1-0.8-0.3-1.2-0.5s-0.7-0.5-0.8-0.9
		c0.8-1.1,1.2-2.2,1.2-3.4c0-0.3,0-0.5,0-0.8c0.3-1.8,0.1-3.3-0.5-4l-0.3,0.3c-0.2-0.2-0.3-0.3-0.4-0.5c-0.2-0.3-0.4-0.4-0.7-0.4
		c-0.2,0-0.3,0-0.4,0.1c0.1-0.9-0.3-1.6-1.3-2.1c-1.2-0.7-1.9-1.2-2.1-1.6c-0.4,0.7-0.5,1.8-0.3,3.3c0.3,1.7,0.4,2.9,0.3,3.3
		c-0.2,1-0.9,1.7-2.2,1.9c-0.1-0.2-0.5-0.2-0.9-0.2c-0.6,0-0.9,0-1,0c-0.7-8.3-1-16.6-0.7-24.7c0.5-0.2,1.3-0.3,2.5-0.3
		C102.9,14.1,103.9,14,104.4,13.8 M156,14.8c1.7,0,3.8,0.1,6.3,0.2c1.2,0.3,2.3,1.1,3.3,2.7c0.8,1.3,1.2,2.7,1.2,4.1
		c0,1.4-0.4,2.8-1.1,4.2c-0.7,1.3-1.6,2.5-2.8,3.4c-0.1,0-0.1,0-0.1,0c-0.1,0-0.2-0.1-0.5-0.3c-0.3,0.3-0.4,0.4-0.3,0.5
		c0.2,0.2,0.7,0.4,1.5,0.5c0.6,0.1,1,0.4,1.3,0.9c0.3-0.1,0.6-0.4,1-0.8c0.5-0.4,0.9-0.6,1.3-0.6c0.1,0,0.2,0,0.2,0
		c1.2,1.3,1.8,3.2,1.8,5.4c0,1.9-0.4,3.8-1.3,5.7c-2.1,2.2-4,3.4-5.8,3.5c-0.2,0.1-0.3,0.1-0.5,0.1c-0.2,0-0.5-0.1-0.9-0.2
		c-0.4-0.1-0.6-0.2-0.8-0.2c-0.2,0-0.5,0.1-0.7,0.3h-4.8c0-1.6,0-3.3,0-4.9c-0.1-1.9-0.8-3.4-1.9-4.2c-0.2-2-0.2-4.3-0.3-6.7
		c0-1.6,0-3.8,0-6.5c0-3.2,0-5.5,0-6.7C153,14.8,154.3,14.8,156,14.8 M158.2,27.2l0.5-0.6c0.1,0,0.2,0,0.4,0c0.3,0,0.6-0.2,0.9-0.7
		c0.3-0.4,0.6-0.7,0.9-0.7c0.2,0,0.4,0.1,0.6,0.2c0.1-0.2,0.3-0.6,0.6-1.1c0.3-0.5,0.5-0.9,0.5-1.2c0-0.4-0.2-0.7-0.6-1l-0.3,0.3
		c0-0.1-0.2-0.2-0.5-0.5c-0.2-0.2-0.3-0.4-0.3-0.6c-0.3-0.6-0.7-1.2-1-1.8c-0.4-0.5-1-0.8-1.6-0.8c-0.1,0-0.2,0-0.3,0
		C158.3,20.3,158.3,23.2,158.2,27.2 M162,30.7c-0.3,0.5-0.7,0.8-1.3,0.8c-0.3,0-0.6-0.1-0.9-0.2v0.5c-0.1,0.2-0.4,0.3-0.9,0.4
		c-0.2-0.3-0.3-0.5-0.3-0.6c-0.5,0.7-0.6,1.2-0.3,1.3c0,0.4,0,1.6,0,3.6c0,1.4,0.1,2.7,0.3,3.6c0.4-0.6,0.9-0.9,1.5-0.9
		c0.2,0,0.4,0,0.8,0s0.7,0,0.9,0c0.7-0.4,1.2-1.3,1.3-2.6c0.2-2.1,0.3-3.2,0.3-3.2c0-0.4-0.3-0.8-0.8-1.3
		C162.1,31.6,161.9,31.1,162,30.7 M62.8,28.3C62.7,28.3,62.7,28.3,62.8,28.3C62.7,28.3,62.7,28.3,62.8,28.3 M120.7,40.2
		c0,0,0.1,0,0.1,0c0.5,0.2,0.6,0.6,0.4,1.3c-0.2,0.7-0.2,1.2,0.2,1.6c-0.7,0.2-1.2,0.3-1.4,0.4c-0.5,0.2-0.8,0.5-0.8,0.9l-1.7-1.3
		c-0.1,0.2-0.4,0.2-0.9,0.3c-0.2-0.3-0.3-0.6-0.3-1.1c0-0.7,0-1.1,0-1.2c0.4,0,0.9-0.2,1.6-0.4c0.7-0.3,1.2-0.4,1.5-0.4
		c0.3,0,0.6,0.1,0.8,0.2C120.4,40.3,120.5,40.2,120.7,40.2 M103.3,40.2c0,0,0.1,0,0.1,0c0.5,0.2,0.6,0.6,0.4,1.3
		c-0.2,0.7-0.2,1.2,0.2,1.6c-0.7,0.2-1.2,0.3-1.4,0.4c-0.5,0.2-0.8,0.5-0.8,0.9l-1.7-1.3c-0.1,0.2-0.4,0.2-0.9,0.3
		c-0.2-0.3-0.3-0.6-0.3-1.1c0-0.7,0-1.1,0-1.2c0.4,0,0.9-0.2,1.6-0.4c0.7-0.3,1.2-0.4,1.5-0.4c0.3,0,0.6,0.1,0.8,0.2
		C103.1,40.3,103.2,40.2,103.3,40.2 M186.3,44.5c0.3,0,0.5,0.4,0.8,1.1c0,0.2,0,0.3,0,0.5c0,1.2-0.7,1.7-2,1.8
		c-0.4-0.2-0.7-0.3-0.8-0.4c-0.1-0.1-0.2-0.3-0.3-0.5c0.1-0.1,0.4-0.5,1-1.4C185.6,44.9,186,44.5,186.3,44.5 M138.2,44.5
		c0.3,0,0.5,0.4,0.8,1.1c0,0.2,0,0.3,0,0.5c0,1.2-0.7,1.7-2,1.8c-0.4-0.2-0.7-0.3-0.8-0.4c-0.1-0.1-0.2-0.3-0.3-0.5
		c0.1-0.1,0.4-0.5,1-1.4C137.5,44.9,137.9,44.5,138.2,44.5 M84.8,44.5c0.3,0,0.6,0.4,0.8,1.1c0,0.2,0,0.3,0,0.5c0,1.2-0.7,1.7-2,1.8
		c-0.4-0.2-0.7-0.3-0.8-0.4c-0.1-0.1-0.2-0.3-0.3-0.5c0.1-0.1,0.4-0.5,1-1.4C84.1,44.9,84.5,44.5,84.8,44.5 M63.8,10.6
		c-0.4,0-0.8,0.1-1,0.4c-0.3,0.3-0.5,0.7-0.5,1.1c0,0.7-0.1,1.7-0.3,2.9c-0.2,1.4-0.3,2.5-0.3,3.3c0,0.4,0.1,0.9,0.1,1.4
		c0,0.2,0.1,0.4,0.1,0.6c0,0.1,0,0.1,0,0.2c0.2,0.6,0.2,1.1,0.2,1.5c0,0.2-0.1,0.6-0.1,1c0,0.2-0.1,0.4-0.1,0.6
		c0,0.3-0.1,0.5-0.1,0.7c-0.1,0.5-0.1,0.8-0.1,1.2c0,0.5,0.1,1,0.2,1.5c-0.4,0.3-0.7,0.7-0.7,1.3c0,0.3,0.1,0.6,0.3,0.9v3.1
		c0,1.6-0.1,2.9-0.3,3.7c-0.1,0.3,0,0.7,0.1,1c0.1,0.2,0.1,0.5,0.1,0.8c0,0.2-0.1,0.7-0.1,1.2l-0.1,0.4l-0.1,0.4
		c-0.1,0.6-0.2,1.1-0.2,1.6c0,1.1,0.4,2.1,1.1,2.8c0.4,0.5,1.2,1,2.5,1c0.4,0,0.8,0,1.2-0.1c0.4-0.1,0.8-0.1,1.1-0.1
		c0.3,0,0.4,0,0.4,0c0.2,0.1,0.5,0.2,0.8,0.2c0.4,0,0.8-0.2,1.1-0.4c0.5-0.5,0.7-1.1,0.7-1.8c0-0.4-0.1-0.6-0.2-0.9
		c0-0.1-0.1-0.2-0.1-0.3c0,0,0-0.1,0-0.1c0-0.1-0.1-0.3-0.1-0.4c0.4-1,0.4-2.4,0.2-4.7c-0.1-0.7-0.1-1.6,0.1-2.3
		c0.2,0.5,0.3,1,0.6,1.5c0,0.1,0.2,0.9,0.5,4.2c0.3,2.5,1,4.1,2.2,5c0.3,0.2,0.6,0.3,0.9,0.3c0.3,0,0.5-0.1,0.7-0.2
		c0.1,0,0.4,0,0.6,0h0.8c0.2,0.1,0.5,0.2,0.8,0.2c0.1,0,0.2,0,0.2,0c0.3,0.1,0.6,0.1,1,0.1c0.3,0,0.6-0.1,0.9-0.3l0.2,0.4
		c0.2,0.6,0.8,1,1.4,1h0.6c-0.2,0.4-0.2,0.9,0,1.3c0.1,0.3,0.3,0.6,0.6,0.9c0.3,0.3,0.5,0.4,0.8,0.5c0.1,0,0.2,0.1,0.4,0.2
		c0.2,0.1,0.4,0.2,0.7,0.2c0,0,0.1,0,0.1,0c3.1-0.2,3.4-2.4,3.4-3.3v-0.5c0-0.1,0-0.3-0.1-0.4c-0.3-0.9-0.7-1.5-1.1-1.8
		c0.7-1,1.1-2.4,1.1-4.2c0.1,0,0.2,0,0.3,0c0.1,0,0.1,0,0.2,0c0,0,0,0,0,0c-0.2,0.3-0.2,0.5-0.2,0.9c0,1,0.7,1.4,1.5,1.9
		c0,0.2,0,0.4,0.1,0.6c0,0.1,0.1,0.5,0.1,0.8c0.1,0.4,0.2,1,0.3,1.7c0.1,1.1,0.4,2.2,0.9,3.1c0.3,0.5,0.8,0.8,1.3,0.8
		c0.5,0,1.2-0.1,2.1-0.4c0,0,0,0,0,0c0.6-0.2,1.1-0.2,1.3-0.2c0.2,0,0.5,0.1,0.7,0.1c0.2,0.1,0.4,0.2,0.7,0.2c0.2,0,0.4,0,0.6-0.1
		c0.4-0.2,0.7-0.6,0.8-1c0.1-0.6,0.1-1.2,0.1-1.7c0-0.4,0-0.8-0.1-1.3c0.3,0.4,0.7,0.7,1.2,0.7c0.1,0,0.2,0,0.3,0c0.1,0,0.2,0,0.3,0
		c0,0,0.1,0,0.1,0l1.1,0.8c0.3,0.2,0.6,0.3,0.9,0.3c0.2,0,0.5-0.1,0.7-0.2c0.4-0.2,0.6-0.5,0.8-0.9c0,0,0,0,0,0
		c0.1,0,0.3-0.1,0.5-0.1c0.2-0.1,0.5-0.1,0.8-0.2c0.5-0.1,0.9-0.6,1-1.1c0.1-0.5,0-0.9-0.3-1.3c0-0.1,0-0.2,0.1-0.3
		c0.4-1.3,0-2.1-0.5-2.6c0.4-0.5,0.7-1,0.8-1.7c0.1-0.5,0.2-1.3-0.3-3.9c0-0.1,0-0.2,0-0.2c0.1,0,0.2,0.1,0.2,0.1c0,0,0.1,0,0.1,0
		c0.5,0.3,0.5,0.4,0.5,0.6c-0.1,0.6,0.3,1.2,0.8,1.5c0.2,0.1,0.4,0.1,0.6,0.1c0,0,0.1,0,0.1,0c0.1,0.1,0.2,0.3,0.4,0.4
		c0.1,0.1,0.3,0.2,0.5,0.3c0.1,0.5,0.1,1.1-0.1,2.1c0,0.1,0,0.2,0,0.2V40c0,0.8-0.3,1.6-0.9,2.5c-0.3,0.4-0.3,0.8-0.2,1.2
		c0.2,0.8,0.8,1.5,1.6,1.9c0.5,0.2,1,0.5,1.5,0.6c0.1,0,0.2,0,0.4,0c0.3,0,0.6-0.1,0.9-0.3c0.1,0,0.2,0,0.3,0c0.5,0.2,1,0.2,1.1,0.2
		c1,0,1.9-0.7,2.2-1.7c0.3,0.4,0.7,0.6,1.2,0.6c0.1,0,0.2,0,0.3,0c0.1,0,0.2,0,0.3,0c0,0,0.1,0,0.1,0l1.1,0.8
		c0.3,0.2,0.6,0.3,0.9,0.3c0.2,0,0.5-0.1,0.7-0.2c0.4-0.2,0.6-0.5,0.8-0.9c0,0,0,0,0,0c0.1,0,0.3-0.1,0.5-0.1
		c0.2-0.1,0.5-0.1,0.8-0.2c0.5-0.1,0.9-0.6,1-1.1c0.1-0.5,0-0.9-0.3-1.3c0-0.1,0-0.2,0.1-0.3c0.3-1.2,0.1-1.9-0.3-2.4
		c0.4-0.5,0.7-1.1,0.9-1.8c0.1-0.5,0.2-1.3-0.3-3.9c0-0.1,0-0.2,0-0.2c0.1,0,0.2,0.1,0.2,0.1c0,0,0.1,0,0.1,0
		c0.5,0.3,0.5,0.4,0.5,0.6c-0.1,0.6,0.3,1.2,0.8,1.5c0.2,0.1,0.4,0.1,0.6,0.1c0,0,0.1,0,0.1,0c0.1,0.1,0.2,0.3,0.4,0.4
		c0.1,0.1,0.3,0.2,0.5,0.3c0.1,0.5,0.1,1.1-0.1,2.1c0,0.1,0,0.2,0,0.2v0.8c0,0.8-0.3,1.6-0.9,2.5c-0.3,0.4-0.3,0.8-0.2,1.2
		c0.2,0.8,0.8,1.5,1.6,1.9c0.5,0.2,1,0.5,1.5,0.6c0.1,0,0.2,0,0.4,0c0.3,0,0.6-0.1,0.9-0.3c0.1,0,0.2,0,0.3,0c0.5,0.2,1,0.2,1.1,0.2
		c0.7,0,1.3-0.3,1.8-0.9c0.2,0.6,0.8,1,1.4,1h0.7c-0.2,0.4-0.2,0.9,0,1.3c0.1,0.3,0.3,0.6,0.6,0.9c0.3,0.3,0.5,0.4,0.8,0.5
		c0.1,0,0.2,0.1,0.4,0.2c0.2,0.1,0.4,0.2,0.7,0.2c0,0,0.1,0,0.1,0c3.1-0.2,3.4-2.4,3.4-3.3v-0.5c0-0.2,0-0.4-0.1-0.6
		c-0.2-0.5-0.5-1.2-1.1-1.7c0.6-0.9,1-2.3,1.1-4.2c0.1,0,0.2,0,0.3,0c0.1,0,0.1,0,0.2,0c-0.2,0.2-0.2,0.5-0.2,0.9c0,1,1,1.6,1.5,1.9
		c0,0.2,0,0.4,0.1,0.6c0,0.1,0.1,0.5,0.1,0.8c0.1,0.4,0.2,1,0.3,1.7c0.1,1.1,0.4,2.2,0.9,3.1c0.3,0.5,0.8,0.8,1.3,0.8
		c0.5,0,1.2-0.1,2.1-0.4c0,0,0,0,0,0c0.6-0.2,1.1-0.2,1.3-0.2c0.3,0,0.5,0.1,0.7,0.1c0.2,0.1,0.4,0.2,0.7,0.2c0.2,0,0.4,0,0.6-0.1
		c0.4-0.2,0.7-0.6,0.8-1c0.1-0.6,0.1-1.1,0.1-1.7c0-1.1-0.2-2.4-0.5-4c-0.3-1.3-0.5-2.4-0.6-3.1c0-0.3-0.1-0.5-0.1-0.6
		c0-0.1,0-0.2-0.1-0.2c0-0.1-0.1-0.6-0.2-2.1c-0.1-1.3-0.5-2.4-1.1-3.2c-0.1-0.1-0.1-0.1-0.2-0.2c0.4-0.3,0.6-0.7,0.6-1.2v-1.3
		c0-1.6-0.4-3.8-1.2-7.1c-0.7-2.6-1-4.7-0.9-6.3c0.1-1.1,0-2.7-1-3.8c-0.6-0.7-1.5-1-2.5-1c-0.7,0-1.6,0.2-2.6,0.4
		c-0.3,0.1-0.6,0.1-0.9,0.2c-0.5,0.1-1,0.2-1.2,0.2c-0.5,0-0.7-0.1-0.7-0.1c-0.3-0.2-0.6-0.3-0.9-0.3c-0.2,0-0.4,0-0.6,0.1
		c-0.8,0.3-2,1.2-1.8,3.8c-0.1,0.7-0.2,1.9-0.2,3.2l-1.9,18.3l0.3-22.5c0-0.7-0.4-1.2-1-1.4c-0.8-0.3-1.6-0.4-2.4-0.4
		c-0.4,0-0.8,0-1.2,0.1c-0.2-0.2-0.6-0.4-1.2-0.4c-0.4,0-0.9,0.2-1.2,0.5c-0.2,0.2-0.3,0.4-0.4,0.6c0,0,0,0.1-0.1,0.1
		c-0.1,0.1-0.2,0.3-0.3,0.5c-0.3,0.6-0.5,1.2-0.5,1.8v0.3c0-0.1-0.1-0.3-0.2-0.4l-1.7-3.1c-0.3-0.5-0.8-0.8-1.3-0.8
		c-0.2,0-0.4,0-0.6,0.1c-0.2,0.1-0.8,0.2-2,0.2c-1.4,0-2.4,0.1-3.1,0.4c-0.4,0.2-0.7,0.5-0.9,0.9c-0.2-0.3-0.5-0.5-0.8-0.6
		c-0.6-0.2-1.3-0.3-2.1-0.3c-0.4,0-0.8,0-1.3,0.1c-0.2-0.2-0.6-0.4-1.2-0.4c-0.4,0-0.9,0.2-1.2,0.5c-0.2,0.2-0.3,0.4-0.4,0.6
		c0,0,0,0.1-0.1,0.1c-0.1,0.1-0.2,0.3-0.3,0.5c-0.3,0.6-0.5,1.2-0.5,1.8v0.3c0-0.1-0.1-0.3-0.2-0.4l-1.7-3.1
		c-0.3-0.5-0.8-0.8-1.3-0.8c-0.2,0-0.4,0-0.6,0.1c-0.2,0.1-0.8,0.2-2,0.2c-1.4,0-2.4,0.1-3.1,0.4c-0.6,0.2-0.9,0.7-0.9,1.3
		c-0.3,7.8-0.1,15.9,0.7,24.9c0,0.2,0,0.3,0.1,0.4c-0.7,0.1-1.2,0.7-1.2,1.5v0c-0.3-1.2-0.6-2.5-0.6-2.9c0-0.2,0-0.4-0.1-0.7
		c-0.1-0.4-0.2-1.1-0.2-2c0-0.1,0-0.1,0-0.2c-0.2-1.1-0.5-2.2-1.1-3c-0.1-0.1-0.1-0.1-0.2-0.2c0.4-0.3,0.6-0.7,0.6-1.2v-1.3
		c0-1.6-0.4-3.8-1.2-7.1c-0.7-2.6-1-4.7-0.9-6.3c0.1-1.1,0-2.7-1-3.8c-0.6-0.7-1.5-1-2.5-1c-0.4,0-0.8,0.1-1.4,0.2
		c-0.3,0.1-0.7,0.1-1.1,0.2c0,0-0.1,0-0.1,0c-1.2,0.3-1.8,0.4-2.1,0.4c-0.5,0-0.7-0.1-0.7-0.1c-0.3-0.2-0.6-0.3-0.9-0.3
		c-0.2,0-0.4,0-0.6,0.1c-0.8,0.3-2,1.2-1.8,3.8c-0.1,0.7-0.2,1.9-0.2,3.2l-2.1,20.4c-0.1-0.4-0.2-0.8-0.2-1.2
		c-0.1-0.5-0.2-1-0.3-1.4c-0.2-0.9-0.4-1.7-0.4-2c0,0,0-0.1,0-0.1c-0.1-1.7-0.6-4-1.4-6.7c-1-3.3-1.2-5-1.2-5.9
		c0-0.6,0.1-1.1,0.2-1.7c0.7-0.8,1.3-1.8,1.8-3.1c0.3-0.8,0.6-1.6,1-2.5c0.4-0.3,0.7-0.7,0.7-1.3v-0.9c0-0.8-0.6-1.4-1.3-1.5
		l-4.6-0.6c-0.1,0-0.1,0-0.2,0c-0.3,0-0.6,0.1-0.9,0.3c-0.7,0.5-1.3,1.5-1.7,2.7c-0.1,0.3-0.2,0.5-0.2,0.6c0.1-0.8,0.1-1.5,0.1-2
		c0-0.8-0.6-1.5-1.4-1.5L63.8,10.6C63.8,10.6,63.8,10.6,63.8,10.6L63.8,10.6z M115.2,37.9l0.1-10.3c0.2,3.9,0.4,7.8,0.7,11.7
		c0,0.1,0,0.2,0.1,0.3c-0.2,0-0.4,0.1-0.6,0.2v-1C115.5,38.5,115.4,38.2,115.2,37.9L115.2,37.9z M140.7,31.6c0,0,0-0.1,0-0.1
		l0.1-0.9c0,0.3,0.1,0.7,0.1,1C140.9,31.6,140.8,31.6,140.7,31.6C140.8,31.6,140.8,31.6,140.7,31.6L140.7,31.6z M87.4,31.6
		c0,0,0-0.1,0-0.1l0.1-0.9c0,0.3,0.1,0.7,0.1,1C87.6,31.6,87.5,31.6,87.4,31.6C87.4,31.6,87.4,31.6,87.4,31.6L87.4,31.6z
		 M191.6,11.5c-0.7,0-1.6,0.2-2.6,0.4c-0.3,0.1-0.6,0.1-0.9,0.2c-0.5,0.1-1,0.2-1.2,0.2c-0.5,0-0.7-0.1-0.7-0.1
		c-0.3-0.2-0.6-0.3-0.9-0.3c-0.2,0-0.4,0-0.6,0.1c-0.8,0.3-2,1.2-1.8,3.8c-0.1,0.7-0.2,1.9-0.2,3.2l-2.5,24.8c0,0.2,0,0.5,0.1,0.7
		l0.3,0.8c0.2,0.6,0.8,1,1.4,1h0.7c-0.3,0.4-0.3,0.9,0,1.4c0.1,0.3,0.3,0.6,0.6,0.9c0.3,0.3,0.5,0.4,0.8,0.5c0.1,0,0.2,0.1,0.4,0.2
		c0.2,0.1,0.4,0.2,0.7,0.2c0,0,0.1,0,0.1,0c3.1-0.2,3.4-2.4,3.4-3.3v-0.5c0-0.2,0-0.4-0.1-0.6c-0.2-0.5-0.5-1.3-1.1-1.7
		c0.7-0.9,1-2.3,1.1-4.2c0.1,0,0.2,0,0.3,0c0.1,0,0.1,0,0.2,0c-0.2,0.2-0.2,0.5-0.2,0.9c0,1,1,1.6,1.5,1.9c0,0.2,0,0.4,0.1,0.6
		c0,0.1,0.1,0.5,0.1,0.8c0.1,0.4,0.2,1,0.3,1.7c0.1,1.1,0.4,2.2,0.9,3.1c0.3,0.5,0.8,0.8,1.3,0.8c0.5,0,1.2-0.1,2.1-0.4c0,0,0,0,0,0
		c0.6-0.2,1.1-0.2,1.3-0.2c0.3,0,0.5,0.1,0.7,0.1c0.2,0.1,0.4,0.2,0.7,0.2c0.2,0,0.4,0,0.6-0.1c0.4-0.2,0.7-0.6,0.8-1
		c0.1-0.6,0.1-1.1,0.1-1.6c0.1-1-0.1-2.2-0.4-4c-0.2-0.9-0.4-1.7-0.5-2.3c-0.1-0.6-0.3-1.2-0.3-1.4c0-0.1,0-0.2-0.1-0.3
		c0-0.1-0.1-0.6-0.2-2.1c-0.1-1.3-0.5-2.4-1.1-3.2c-0.1-0.1-0.1-0.1-0.2-0.2c0.4-0.3,0.6-0.7,0.6-1.2v-1.3c0-1.6-0.4-3.8-1.2-7.1
		c-0.7-2.6-1-4.7-0.9-6.3c0.1-1.1,0-2.7-1-3.8C193.5,11.8,192.6,11.5,191.6,11.5L191.6,11.5z M188.8,31.5c0,0,0-0.1,0-0.1l0.1-0.9
		c0,0.3,0.1,0.7,0.1,1C188.9,31.5,188.9,31.5,188.8,31.5C188.8,31.5,188.8,31.5,188.8,31.5L188.8,31.5z M178.2,12.2
		c-0.4,0-0.8,0.2-1.1,0.5c0,0-0.1,0-0.2,0c-0.1,0-0.4-0.1-0.6-0.1l-0.5-0.1l-0.4-0.1c-0.5-0.1-0.9-0.2-1.3-0.2c-0.4,0-0.8,0-1.3,0.2
		c-0.6,0.2-1,0.8-1,1.4v0.4c-0.1,0.1-0.1,0.2-0.2,0.4c-0.1,0.2-0.1,0.4,0,0.7c-0.1,0.3-0.1,0.6-0.1,0.8c0,0.3,0.1,0.7,0.2,1l0.1,0.3
		c0,0.1,0.1,0.2,0.1,0.3c0,0.1,0,0.1,0,0.2c-0.3,0.5-0.4,1.1-0.1,1.6c0,0.1-0.1,0.1-0.1,0.2c-0.1,0.2-0.2,0.5-0.2,0.8
		c0,0.2,0,0.4,0.1,0.7c-0.2,1.4-0.3,3.1-0.3,5v4.9v4.4c-0.1,0.5-0.1,0.9-0.1,1.4c0,0.4,0,0.8,0.1,1.4c0,0.3,0.1,0.6,0.1,0.9l0.1,0.5
		c0.1,0.6,0.1,1.3,0.1,1.5c0,0.5-0.1,1-0.2,1.5c-0.1,0.2-0.1,0.5,0,0.8c0.4,1.9,1.8,2,2.2,2c0.1,0,0.5,0,0.9-0.1c0,0,0,0,0,0
		c0.2,0.1,0.4,0.2,0.6,0.3c0.5,0.1,1,0.2,1.5,0.2c1.3,0,2.7-0.8,2.9-3.2c0.1-1.9,0.2-2.4,0.2-2.6c0.1-0.4,0.1-0.8-0.1-1.2
		c0.2-0.6,0.2-1.1,0.1-1.5c0-0.1,0-0.2,0-0.3l0.9-22.9c0-0.6-0.3-1.1-0.8-1.4l-0.9-0.5C178.7,12.3,178.5,12.2,178.2,12.2L178.2,12.2
		z M156,13.3c-1.8,0-3.1,0.1-4.1,0.2c-0.8,0.1-1.3,0.7-1.3,1.5v6.7v6.5c0,0,0,0,0,0.1c0,0.8,0.1,1.5,0.1,2.2c0,1.6,0.1,3.1,0.2,4.6
		c0,0.4,0.3,0.8,0.6,1.1c0.8,0.6,1.2,1.6,1.3,3v4.9c0,0.8,0.7,1.5,1.5,1.5h4.8c0.3,0,0.6-0.1,0.8-0.2c0.1,0,0.2,0.1,0.3,0.1l0.3,0.1
		c0.3,0.1,0.7,0.2,1,0.2c0.3,0,0.5,0,0.9-0.1c2.1-0.2,4.2-1.5,6.5-3.9c0.1-0.1,0.2-0.2,0.3-0.4c1-2.1,1.5-4.2,1.5-6.4
		c0-2.7-0.8-4.8-2.2-6.4c-0.2-0.2-0.5-0.4-0.8-0.5c-0.2,0-0.4-0.1-0.5-0.1c-0.4,0-0.8,0.1-1.2,0.3c0.4-0.5,0.7-1,1-1.6
		c0.9-1.8,1.3-3.3,1.3-4.9c0-1.7-0.5-3.3-1.4-4.9c-1.1-1.8-2.5-2.9-4.2-3.3c-0.1,0-0.2,0-0.3,0C159.9,13.3,157.7,13.3,156,13.3
		L156,13.3z M159.8,24c0-0.6,0-1.2,0-1.7c0.1,0.2,0.2,0.4,0.4,0.6c0.1,0.1,0.3,0.2,0.4,0.3c0.1,0.1,0.2,0.2,0.3,0.3
		c0,0.1-0.1,0.1-0.1,0.2C160.4,23.7,160.1,23.8,159.8,24L159.8,24z M160.7,33c0.2,0,0.4,0,0.6-0.1c0.1,0.1,0.1,0.2,0.2,0.2
		c0.2,0.2,0.3,0.3,0.4,0.4c0,0.4-0.1,1.4-0.3,2.9c0,0.6-0.2,1-0.4,1.2h-0.4h-0.8c-0.1,0-0.2,0-0.3,0c0-0.4,0-0.8,0-1.2v-3
		C160,33.4,160.4,33.3,160.7,33L160.7,33z"/>
</g>
<path d="M162.3,22.2L162.3,22.2L162.3,22.2L162.3,22.2z"/>
<g>
	<path class="st1" d="M191.6,66.4c-0.4,0-0.7-0.1-0.9-0.1h-0.8l0-0.8V63h1.4c0.4,0,0.6-0.1,0.6-0.1c0-0.1,0.1-0.2,0-0.6l-3.3-9.5
		h4.2l1.2,4.1l0.8-2.8c0.2-0.8,0.8-1.4,1.7-1.4h2.5L195.2,64C194.6,65.6,193.9,66.4,191.6,66.4z M157.2,66.4v-9.1
		c0.1-3.1,1.7-4.6,4.8-4.6c0.1,0,0.2,0,0.3,0c2.1,0,4.6,0.9,4.6,5c0,4.3-2.3,5.3-4.2,5.3c0,0,0,0,0,0c-0.7,0-1.2-0.1-1.7-0.4v1.8
		c0,1.1-0.8,1.9-1.9,1.9H157.2z M162,55.9c-0.4,0-1.1,0-1.1,1.9c0.1,1.8,0.8,1.8,1.1,1.8c0.5,0,1.2,0,1.2-1.8
		C163.1,55.9,162.4,55.9,162,55.9z M134.9,63.1c-2.2,0-4.7-0.9-4.7-5.3c0-4.4,2.6-5.3,4.7-5.3c2.2,0.1,4.7,1.1,4.7,5.3
		C139.6,62.2,137,63.1,134.9,63.1z M134.8,56c-0.7,0-1,0.6-1,1.9c0,1.8,0.7,1.8,1,1.8c0.2,0,1,0,1-1.9C135.8,56,135.1,56,134.8,56z
		 M123,63.1c-3.7,0-5.9-2.5-5.9-6.6c0-4.2,2.2-6.6,6.1-6.6c1.7,0,2.9,0.4,3.9,1.2c0.9,0.9,1.5,2.1,1.6,3.5l0.1,0.8h-2.2
		c-0.8,0-1.4-0.4-1.8-1.1c-0.2-0.4-0.5-0.8-1.6-0.8c-0.7,0-1.3,0.2-1.7,0.6c-0.5,0.5-0.7,1.3-0.6,2.4c0,3.1,1.7,3.1,2.3,3.1
		c1,0,1.7-0.5,1.8-1.4l0.1-0.6h3.7l-0.1,0.8C128.4,61.4,126.3,63.1,123,63.1z M100.8,63.1c-2.2,0-4.8-0.9-4.8-5.2
		c0-4.3,2.3-5.3,4.2-5.3c0,0,0,0,0,0c0.7,0,1.3,0.1,1.8,0.4v-2.8h1.9c0.9,0,1.8,0.9,1.8,1.9v6.4C105.6,61.5,103.9,63.1,100.8,63.1z
		 M100.9,56c-0.4,0-1.1,0-1.1,1.8c0,1.9,0.8,1.9,1.1,1.9c0.3,0,1.1,0,1.1-1.9C101.9,56,101.1,56,100.9,56z M89.5,63.1
		c-2.1-0.1-4.7-1.1-4.7-5.3c0-3.4,1.7-5.2,4.7-5.2c1.6,0,2.8,0.4,3.6,1.3c0.9,1,1.3,2.5,1.2,4.6l0,0.3h0.1L94.3,59l0,0.1h0l-0.2,0.6
		C93.5,62,92,63.1,89.5,63.1L89.5,63.1z M88.8,59.2c0.2,0.5,0.6,0.5,0.8,0.5c0.3,0,0.6-0.1,0.9-0.4c0.1-0.1,0.1-0.1,0.2-0.1H88.8z
		 M90.3,56.1c-0.2-0.2-0.5-0.2-0.6-0.2s-0.4,0-0.6,0.2H90.3z M78.6,63.1c-2.1-0.1-4.7-1.1-4.7-5.3c0-3.4,1.7-5.2,4.7-5.2
		c1.6,0,2.7,0.4,3.5,1.2c0.9,1,1.4,2.5,1.3,4.6l0,0.4h0l0,0.2l0,0.2h-0.1l-0.2,0.6C82.6,62,81.1,63.1,78.6,63.1L78.6,63.1z
		 M77.9,59.2c0.2,0.5,0.6,0.5,0.8,0.5c0.3,0,0.6-0.1,0.9-0.4c0.1-0.1,0.1-0.1,0.2-0.1H77.9z M79.3,56.1c-0.2-0.2-0.5-0.2-0.6-0.2
		s-0.4,0-0.6,0.2H79.3z M172,63.1c-2.3,0-3.8-1.4-3.8-3.5c0-1.8,1-2.7,2.1-3.1h-2l0.2-0.9c0.3-1.4,1.2-3.1,4.2-3.1
		c1.1,0,4.5,0.2,4.5,3.2v3c0,2.7-1.5,4.2-4.6,4.4C172.4,63.1,172.2,63.1,172,63.1z M173.5,58.9c-0.3,0.1-0.6,0.1-0.8,0.2
		c-0.7,0.2-0.7,0.4-0.7,0.5c0,0.2,0,0.2,0,0.2c0,0,0.1,0.1,0.3,0.1C173.1,59.8,173.5,59.5,173.5,58.9z M172.8,55.8
		c-0.5,0-0.6,0.1-0.6,0.1l0,0.1c0.2,0,0.4,0,0.6-0.1c0.2,0,0.4-0.1,0.5-0.1C173.1,55.8,173,55.8,172.8,55.8z M185.9,63L185.9,63
		c-1.6-0.2-1.8-1.3-1.8-1.9v-4.5c-0.1-0.5-0.1-0.6-0.8-0.6c-0.8,0-0.8,0.2-0.8,0.6V63h-3.7v-6c0-3,1.6-4.5,4.5-4.5
		c3,0,4.5,1.6,4.5,4.5v6H185.9z M153.6,63L153.6,63c-1.6-0.2-1.8-1.3-1.8-1.9v-4.5c-0.1-0.5-0.1-0.6-0.8-0.6c-0.8,0-0.8,0.2-0.8,0.6
		V63h-3.7v-6.4c-0.1-0.5-0.1-0.6-0.8-0.6c-0.8,0-0.8,0.2-0.8,0.6V63h-3.7v-6c0-3,1.6-4.5,4.5-4.5c1.1,0,2,0.2,2.6,0.6
		c0.7-0.4,1.5-0.6,2.6-0.6c2.8,0,4.4,1.6,4.5,4.5l0,6H153.6z M67.1,63c-4.3,0-5.2-2.4-5.3-4.4l0-0.8h3.6c-2.2-0.7-3.3-1.9-3.3-3.6
		c0-1.6,0.7-4.3,5-4.3c3.9,0,4.8,2.3,4.9,4.2l0,0.8h-2.1c-0.8,0-1.4-0.4-1.7-1.1c-0.2-0.3-0.5-0.5-1.4-0.5c-1.1,0-1.1,0.4-1.1,0.6
		c0,0.2,0.4,0.6,1.5,0.8l0.3,0.1c0.8,0.2,1.6,0.4,2.5,0.8c1.6,0.6,2.4,1.9,2.3,3.6C72.3,60.9,71.3,63,67.1,63z M65.5,58.6
		c0.1,0.6,0.2,1.1,1.6,1.1c1.4,0,1.4-0.5,1.4-0.7c0-0.1,0-0.3-0.5-0.4c-0.7-0.2-1.4-0.4-2.2-0.6c-0.1,0-0.2-0.1-0.3-0.1L65.5,58.6z"
		/>
	<path d="M67,50.7c2.6,0,4.1,1.1,4.2,3.5h-1.3c-0.5,0-0.8-0.2-1-0.7c-0.4-0.6-1-0.9-2-0.9c-1.2,0-1.8,0.5-1.8,1.3
		c0,0.7,0.7,1.2,2.1,1.5c0.8,0.2,1.7,0.4,2.6,0.8c1.3,0.5,1.9,1.4,1.8,2.9c-0.1,2.2-1.6,3.3-4.5,3.3c-3,0-4.5-1.2-4.6-3.7h2.2
		c0.1,1.2,0.8,1.8,2.3,1.8c1.4,0,2.1-0.5,2.1-1.4c0-0.5-0.3-0.9-1-1.1c-0.7-0.2-1.4-0.4-2.2-0.6c-2.2-0.6-3.3-1.6-3.3-3.1
		C62.8,51.9,64.2,50.7,67,50.7 M123.2,50.8c1.4,0,2.5,0.3,3.4,1c0.7,0.7,1.2,1.7,1.3,3h-1.4c-0.5,0-0.9-0.3-1.1-0.7
		c-0.4-0.8-1.1-1.2-2.2-1.2c-2.1,0-3.2,1.4-3.1,3.8c0,2.2,0.9,3.8,3.1,3.8c1.4,0,2.3-0.8,2.5-2h2.2c-0.2,2.7-2,4.1-4.9,4.1
		c-3.5,0-5.2-2.2-5.2-5.8C117.8,52.9,119.6,50.8,123.2,50.8 M103.8,50.9c0.5,0,1,0.5,1,1.1v6.4c0,2.7-1.4,4-4.1,4
		c-2.7,0-4.1-1.5-4.1-4.5c0-3,1.1-4.5,3.5-4.6c1.1,0,1.9,0.4,2.5,1.3v-3.8H103.8 M100.9,60.5c1.2,0,1.8-0.9,1.8-2.7
		c0-1.7-0.7-2.6-1.8-2.6c-1.2,0-1.8,0.8-1.8,2.6C99,59.5,99.6,60.5,100.9,60.5 M172.7,53.2c2.5,0.1,3.8,0.8,3.8,2.4v3
		c0,2.4-1.4,3.5-3.9,3.7c-0.2,0-0.4,0-0.5,0c-1.8,0-3-1-3-2.8c0-2.1,1.5-2.7,3.8-2.9c0.9-0.1,1.4-0.4,1.4-0.9s-0.5-0.7-1.4-0.7
		c-0.8,0-1.2,0.2-1.3,0.6h-2.2C169.5,54,170.6,53.2,172.7,53.2 M172.4,60.6c1.2,0,1.9-0.7,1.9-1.9v-0.8c-0.5,0.2-1.1,0.4-1.7,0.5
		c-0.9,0.2-1.3,0.6-1.3,1.2C171.2,60.3,171.6,60.6,172.4,60.6 M134.9,53.2c2.5,0.1,4,1.5,4,4.6s-1.3,4.6-4,4.6c-2.6,0-4-1.5-4-4.6
		S132.2,53.2,134.9,53.2 M134.8,60.5c1.1,0,1.7-0.9,1.7-2.7c0-1.7-0.6-2.6-1.7-2.6c-1.1,0-1.7,0.9-1.7,2.7
		C133,59.6,133.7,60.5,134.8,60.5 M183.4,53.3c2.5,0,3.8,1.2,3.8,3.8v5.2H186c-0.7-0.1-1.1-0.4-1.1-1.1v-4.5
		c-0.1-0.9-0.5-1.3-1.5-1.3c-1,0-1.5,0.4-1.5,1.3v5.6h-2.2v-5.2C179.6,54.5,180.8,53.3,183.4,53.3 M151,53.3c2.4,0,3.7,1.2,3.8,3.8
		v5.2h-1.1c-0.7-0.1-1.1-0.4-1.1-1.1v-4.5c-0.1-0.9-0.5-1.3-1.5-1.3s-1.5,0.4-1.5,1.3v5.6h-2.2v-5.6c-0.1-0.9-0.5-1.3-1.5-1.3
		c-1,0-1.5,0.4-1.5,1.3v5.6h-2.2v-5.2c0-2.6,1.2-3.8,3.8-3.8c1.1,0,2,0.2,2.6,0.7C148.9,53.5,149.8,53.3,151,53.3 M89.6,53.3
		c3,0,4.3,1.6,4.1,5.1h-5.7c0.1,1.3,0.7,2,1.7,2c0.5,0,1-0.2,1.4-0.6c0.2-0.2,0.4-0.3,0.7-0.3h1.6c-0.5,1.8-1.6,2.9-3.9,2.9
		c-2.6-0.1-4-1.6-4-4.6C85.6,54.8,86.9,53.3,89.6,53.3 M88.1,56.9h3.3c-0.1-1.1-0.7-1.7-1.6-1.7C88.8,55.1,88.2,55.8,88.1,56.9
		 M78.7,53.3c3,0,4.2,1.6,4.1,5.1H77c0.1,1.3,0.7,2,1.7,2c0.5,0,1-0.2,1.4-0.6c0.2-0.2,0.4-0.3,0.7-0.3h1.6
		c-0.5,1.8-1.6,2.9-3.9,2.9c-2.6-0.1-4-1.6-4-4.6C74.7,54.8,76,53.3,78.7,53.3 M77.1,56.9h3.3c-0.1-1.1-0.7-1.7-1.6-1.7
		C77.8,55.1,77.2,55.8,77.1,56.9 M162.3,53.4c2.6,0,3.8,1.4,3.8,4.3c0,3-1.1,4.5-3.5,4.6c-1.1,0-1.9-0.4-2.4-1.3v3.6
		c0,0.7-0.4,1.1-1.1,1.1H158v-8.4c0.1-2.7,1.4-3.9,4.1-3.9C162.2,53.4,162.2,53.4,162.3,53.4 M162,60.4c1.3,0,1.9-0.8,1.9-2.6
		c0-1.7-0.6-2.7-1.9-2.7c-1.3,0-1.8,0.9-1.8,2.7C160.2,59.5,160.8,60.4,162,60.4 M197.9,53.4l-3.5,10.3c-0.5,1.4-1,1.9-2.9,1.9
		c-0.5,0-0.8-0.1-0.9-0.1v-1.8h0.6c1.2,0,1.6-0.6,1.3-1.7l-3-8.6h2.5l1.7,6.1l1.5-5.3c0.1-0.5,0.4-0.8,1-0.8H197.9 M67,49.2
		c-5.2,0-5.8,3.5-5.8,5.1c0,0.9,0.3,2,1.2,2.9H61l0.1,1.6c0.1,3.2,2.4,5.1,6.1,5.1c5,0,5.9-2.9,6-4.7c0.1-1.4-0.4-2.6-1.3-3.5h1
		l-0.1-1.6C72.6,50.9,70.5,49.2,67,49.2L67,49.2z M123.2,49.3c-4.3,0-6.9,2.7-6.9,7.3c0,4.6,2.5,7.3,6.7,7.3c3.7,0,6.1-2.1,6.4-5.5
		l0.1-0.8c0,0.1,0,0.1,0,0.2c0,3.9,2,6.1,5.5,6.1c3.5,0,5.5-2.2,5.5-6.1c0-3.7-2-6-5.4-6.1l0,0h0c-3.2,0-5.1,1.8-5.4,5.1h-1.6h-2.2
		h-1.3l-0.2,1.3c-0.1,0.4-0.2,0.8-1.1,0.8c-0.5,0-1.6,0-1.6-2.3v0l0,0c0-0.9,0.1-1.5,0.4-1.9c0.2-0.2,0.6-0.4,1.1-0.4
		c0.7,0,0.8,0.2,0.9,0.4c0.5,1,1.4,1.5,2.5,1.5h1.4h1.6l-0.1-1.6c-0.1-1.5-0.7-2.9-1.8-3.9l0,0l0,0C126.4,49.7,125,49.3,123.2,49.3
		L123.2,49.3z M134.7,56.8C134.7,56.8,134.8,56.8,134.7,56.8C134.8,56.8,134.8,56.8,134.7,56.8c0.1,0.1,0.3,0.4,0.3,1.1
		c0,0.8-0.1,1.1-0.2,1.2c0,0,0,0,0,0c0,0-0.1,0-0.1,0c0-0.1-0.2-0.4-0.2-1C134.5,57.1,134.7,56.8,134.7,56.8L134.7,56.8z
		 M103.8,49.4h-1.1h-1.5v1.5v1.1c-0.3-0.1-0.7-0.1-1-0.1h0l0,0c-1.8,0.1-4.9,1-4.9,6.1c0,0,0,0.1,0,0.1h0c0.1-2.1-0.4-3.6-1.4-4.7
		c-1-1-2.4-1.5-4.2-1.5c-3.1,0-5,1.7-5.4,4.8c-0.2-1.4-0.7-2.5-1.4-3.3c-0.9-1-2.3-1.5-4.1-1.5c-3.5,0-5.5,2.2-5.5,6
		c0,3.7,2,6,5.4,6.1l0,0h0c2.8,0,4.6-1.3,5.3-4l0,0h0.2l0-0.6c0.5,2.8,2.3,4.5,5.3,4.6l0,0h0c2.8,0,4.6-1.3,5.3-4l0,0H95l0-0.8
		l0.1-0.5c0.3,3.3,2.3,5.2,5.5,5.2c3.5,0,5.6-2,5.6-5.5V52C106.3,50.6,105.2,49.4,103.8,49.4L103.8,49.4z M100.7,56.8
		c0,0,0.1,0,0.2,0c0.1,0,0.1,0,0.1,0c0,0,0.2,0.3,0.2,1c0,0.8-0.1,1.1-0.2,1.1c0,0,0,0,0,0c0,0,0,0-0.1,0c-0.1,0-0.1,0-0.1,0
		c0,0-0.2-0.4-0.2-1.1C100.5,57.1,100.7,56.8,100.7,56.8C100.7,56.8,100.7,56.8,100.7,56.8L100.7,56.8z M172.7,51.7L172.7,51.7
		c-3.7,0-4.7,2.3-5,3.7l-0.2,1c-0.4-2.8-2.3-4.4-5.2-4.4c-0.1,0-0.2,0-0.3,0c-3.4,0-5.4,1.9-5.5,5.3l0,0v0v8.4v1.5h1.5h1.1
		c1.5,0,2.6-1.1,2.6-2.6v-0.8c0.3,0.1,0.6,0.1,0.9,0.1h0l0,0c1.6-0.1,4.1-0.8,4.7-4.3c0,0,0,0,0,0c0,2.6,1.8,4.3,4.5,4.3
		c0.2,0,0.4,0,0.7,0c4.3-0.4,5.2-3,5.2-5.2v-3C177.9,53.2,176.2,51.9,172.7,51.7L172.7,51.7L172.7,51.7z M161.8,56.7
		c0,0,0.1,0,0.2,0c0.1,0,0.2,0,0.2,0c0,0,0.2,0.2,0.2,1.1c0,0.8-0.2,1-0.2,1c0,0,0,0,0,0c0,0-0.1,0-0.3,0c-0.1,0-0.1,0-0.1,0
		c0,0-0.2-0.2-0.2-1.1C161.6,57,161.8,56.7,161.8,56.7C161.8,56.7,161.8,56.7,161.8,56.7L161.8,56.7z M167.6,57.2h0.5
		c-0.2,0.3-0.4,0.7-0.5,1.2c0-0.2,0-0.4,0-0.7C167.6,57.5,167.6,57.3,167.6,57.2L167.6,57.2z M183.4,51.8c-3.4,0-5.3,1.9-5.3,5.3
		v5.2v1.5h1.5h2.2h1.5v-1.5v-5.4c0,0,0,0,0,0c0,0,0,0,0,0v4.3c0,1.4,0.9,2.4,2.4,2.6l0.1,0h0.1h1.1h1.5v-1.5v-5.2
		C188.6,53.7,186.7,51.8,183.4,51.8L183.4,51.8z M151,51.8c-1.1,0-1.9,0.2-2.6,0.5c-0.7-0.3-1.6-0.5-2.6-0.5c-3.4,0-5.3,1.9-5.3,5.3
		v5.2v1.5h1.5h2.2h1.5v-1.5v-5.4c0,0,0,0,0,0c0,0,0,0,0,0v5.4v1.5h1.5h2.2h1.5v-1.5v-5.4c0,0,0,0,0,0c0,0,0,0,0,0v4.3
		c0,1.4,0.9,2.4,2.4,2.6l0.1,0h0.1h1.1h1.5v-1.5v-5.2v0l0,0C156.1,53.7,154.2,51.8,151,51.8L151,51.8z M200,51.9h-2.1h-1.4
		c-1.3,0-2.2,0.7-2.5,2l-0.1,0.2l-0.3-1.1l-0.3-1.1h-1.1h-2.5h-2.1l0.7,2l2.9,8.3h-0.4h-1.5v1.5v1.8v1.5h1.4c0.2,0,0.5,0.1,1,0.1
		c2.3,0,3.5-0.8,4.3-2.9l3.5-10.3L200,51.9L200,51.9z"/>
</g>
</svg>
